<?xml version="1.0" encoding="UTF-8" standalone="no"?><!DOCTYPE svg PUBLIC "-//W3C//DTD SVG 1.1//EN" "http://www.w3.org/Graphics/SVG/1.1/DTD/svg11.dtd"><svg width="4000px" height="2500px" version="1.1" xmlns="http://www.w3.org/2000/svg" xmlns:xlink="http://www.w3.org/1999/xlink" xml:space="preserve" xmlns:serif="http://www.serif.com/" style="fill-rule:evenodd;clip-rule:evenodd;stroke-linejoin:round;stroke-miterlimit:2;"><g><g transform="matrix(0.640347,0,0,0.640347,2406.36,-534.777)"><g><g transform="matrix(1.56165,0,0,1.56165,-3757.24,834.803)"><rect x="111.817" y="218.725" width="3805.79" height="2107.56" style="fill:rgb(174,211,240);"/></g><g transform="matrix(1.56165,0,0,1.56165,-3757.9,835.135)"><path d="M112.235,1662.8L112.235,2326.07L1277.32,2326.07C1138.62,2236.16 1004.63,2138.66 871.947,2039.87C680.192,1897.1 513.278,1740.32 273.208,1682.42C219.564,1669.48 165.592,1663.16 112.235,1662.8ZM3918.03,810.112L3918.03,218.512L967.27,218.512C1088.75,389.216 1269.79,553.9 1344.99,609.44C1465.57,698.495 1603.4,762.582 1744.82,810.396C2033.59,908.028 2350.15,889.851 2649.8,866.876C2974.87,841.953 3524.06,713.606 3918.03,810.112Z" style="fill:rgb(195,220,243);"/></g></g></g><g transform="matrix(1,0,0,1,0.418104,-0.212506)"><rect x="111.817" y="218.725" width="3805.79" height="2107.56" style="fill:none;"/><clipPath id="_clip1"><rect x="111.817" y="218.725" width="3805.79" height="2107.56"/></clipPath><g clip-path="url(#_clip1)"><g transform="matrix(1.24262,0,0,1.24262,-373.74,-308.118)"><g transform="matrix(4.95889,-3.88189,4.59692,3.4744,-12862.4,8187.57)"><g transform="matrix(1,0,0,1,-1.90229,1.37203)"><path d="M2387,715.136L2344.66,670.766L2201.57,670.766L2201.57,933.178L2387,933.178L2387,715.136Z" style="fill-opacity:0.1;"/></g><path d="M2387,715.136L2344.66,670.766L2201.57,670.766L2201.57,933.178L2387,933.178L2387,715.136Z" style="fill:rgb(232,246,255);"/><g transform="matrix(-0.682565,0.00394843,0.00602802,0.699685,3113.2,633.752)"><g transform="matrix(0.239375,-1.62918e-19,-3.25837e-19,0.239375,977.479,223.363)"><path d="M1357.14,286.304C1357.14,275.7 1348.53,267.091 1337.92,267.091L543.995,267.091C533.391,267.091 524.782,275.7 524.782,286.304C524.782,296.908 533.391,305.517 543.995,305.517L1337.92,305.517C1348.53,305.517 1357.14,296.908 1357.14,286.304Z" style="fill:white;"/></g><g transform="matrix(0.239375,-1.62918e-19,-3.25837e-19,0.239375,978.002,282.582)"><path d="M1357.14,286.304C1357.14,275.7 1348.53,267.091 1337.92,267.091L543.995,267.091C533.391,267.091 524.782,275.7 524.782,286.304C524.782,296.908 533.391,305.517 543.995,305.517L1337.92,305.517C1348.53,305.517 1357.14,296.908 1357.14,286.304Z" style="fill:white;"/></g><g transform="matrix(0.385494,-2.62367e-19,-5.24733e-19,0.385494,910.984,-48.4089)"><g transform="matrix(0.900109,0,0,0.801474,59.7802,80.9498)"><rect x="506.059" y="487.605" width="80.05" height="407.837" style="fill:rgb(187,227,248);"/></g><g transform="matrix(0.900109,0,0,0.555165,164.727,301.505)"><rect x="506.059" y="487.605" width="80.05" height="407.837" style="fill:rgb(187,227,248);"/></g><g transform="matrix(0.900109,0,0,0.353623,269.674,481.975)"><rect x="506.059" y="487.605" width="80.05" height="407.837" style="fill:rgb(187,227,248);"/></g><g transform="matrix(0.900109,0,0,0.58284,374.621,276.724)"><rect x="506.059" y="487.605" width="80.05" height="407.837" style="fill:rgb(187,227,248);"/></g><g transform="matrix(0.900109,0,-4.99661e-17,0.839717,479.568,46.7055)"><rect x="506.059" y="487.605" width="80.05" height="407.837" style="fill:rgb(187,227,248);"/></g></g><g transform="matrix(0.196904,-1.34013e-19,-2.68025e-19,0.196904,1008.45,118.563)"><circle cx="584.195" cy="1024.83" r="74.953" style="fill:white;"/></g><g transform="matrix(0.196904,-1.34013e-19,-2.68025e-19,0.196904,1008.97,177.782)"><circle cx="584.195" cy="1024.83" r="74.953" style="fill:white;"/></g><g transform="matrix(0.196904,-1.34013e-19,-2.68025e-19,0.196904,1048.92,118.563)"><circle cx="584.195" cy="1024.83" r="74.953" style="fill:white;"/></g><g transform="matrix(0.196904,-1.34013e-19,-2.68025e-19,0.196904,1049.45,177.782)"><circle cx="584.195" cy="1024.83" r="74.953" style="fill:white;"/></g><g transform="matrix(0.196904,-1.34013e-19,-2.68025e-19,0.196904,1089.4,118.563)"><circle cx="584.195" cy="1024.83" r="74.953" style="fill:white;"/></g></g><g transform="matrix(1,0,0,1,-2.84164,2.97794)"><rect x="2224.62" y="690.598" width="81.348" height="4.702" style="fill:white;"/></g><g transform="matrix(1,0,0,1,-2.84164,14.0151)"><rect x="2224.62" y="690.598" width="81.348" height="4.702" style="fill:white;"/></g><path d="M2344.66,670.766L2342.93,719.997L2387.79,716.319L2344.66,670.766Z" style="fill:rgb(186,228,255);"/><path d="M2344.66,670.766L2343.54,715.482L2387.79,716.319L2344.66,670.766Z" style="fill:rgb(232,246,255);"/></g><g transform="matrix(5.50875,-2.57619,3.91488,4.53613,-13432,4234.01)"><g transform="matrix(1,0,0,1,-1.90229,1.37203)"><path d="M2387,715.136L2344.66,670.766L2201.57,670.766L2201.57,933.178L2387,933.178L2387,715.136Z" style="fill-opacity:0.1;"/></g><path d="M2387,715.136L2344.66,670.766L2201.57,670.766L2201.57,933.178L2387,933.178L2387,715.136Z" style="fill:rgb(232,246,255);"/><g transform="matrix(-0.682565,0.00394843,0.00602802,0.699685,3113.2,633.752)"><g transform="matrix(0.239375,-1.62918e-19,-3.25837e-19,0.239375,977.479,223.363)"><path d="M1357.14,286.304C1357.14,275.7 1348.53,267.091 1337.92,267.091L543.995,267.091C533.391,267.091 524.782,275.7 524.782,286.304C524.782,296.908 533.391,305.517 543.995,305.517L1337.92,305.517C1348.53,305.517 1357.14,296.908 1357.14,286.304Z" style="fill:white;"/></g><g transform="matrix(0.239375,-1.62918e-19,-3.25837e-19,0.239375,978.002,282.582)"><path d="M1357.14,286.304C1357.14,275.7 1348.53,267.091 1337.92,267.091L543.995,267.091C533.391,267.091 524.782,275.7 524.782,286.304C524.782,296.908 533.391,305.517 543.995,305.517L1337.92,305.517C1348.53,305.517 1357.14,296.908 1357.14,286.304Z" style="fill:white;"/></g><g transform="matrix(0.385494,-2.62367e-19,-5.24733e-19,0.385494,910.984,-48.4089)"><g transform="matrix(0.900109,0,0,0.801474,59.7802,80.9498)"><rect x="506.059" y="487.605" width="80.05" height="407.837" style="fill:rgb(187,227,248);"/></g><g transform="matrix(0.900109,0,0,0.555165,164.727,301.505)"><rect x="506.059" y="487.605" width="80.05" height="407.837" style="fill:rgb(187,227,248);"/></g><g transform="matrix(0.900109,0,0,0.353623,269.674,481.975)"><rect x="506.059" y="487.605" width="80.05" height="407.837" style="fill:rgb(187,227,248);"/></g><g transform="matrix(0.900109,0,0,0.58284,374.621,276.724)"><rect x="506.059" y="487.605" width="80.05" height="407.837" style="fill:rgb(187,227,248);"/></g><g transform="matrix(0.900109,0,0,0.304774,479.568,525.716)"><rect x="506.059" y="487.605" width="80.05" height="407.837" style="fill:rgb(187,227,248);"/></g></g><g transform="matrix(0.196904,-1.34013e-19,-2.68025e-19,0.196904,1008.45,118.563)"><circle cx="584.195" cy="1024.83" r="74.953" style="fill:white;"/></g><g transform="matrix(0.196904,-1.34013e-19,-2.68025e-19,0.196904,1008.97,177.782)"><circle cx="584.195" cy="1024.83" r="74.953" style="fill:white;"/></g><g transform="matrix(0.196904,-1.34013e-19,-2.68025e-19,0.196904,1048.92,118.563)"><circle cx="584.195" cy="1024.83" r="74.953" style="fill:white;"/></g><g transform="matrix(0.196904,-1.34013e-19,-2.68025e-19,0.196904,1089.4,118.563)"><circle cx="584.195" cy="1024.83" r="74.953" style="fill:white;"/></g><g transform="matrix(0.196904,-1.34013e-19,-2.68025e-19,0.196904,1130.92,118.563)"><circle cx="584.195" cy="1024.83" r="74.953" style="fill:white;"/></g></g><g transform="matrix(1,0,0,1,-2.84164,2.97794)"><rect x="2224.62" y="690.598" width="81.348" height="4.702" style="fill:white;"/></g><g transform="matrix(1,0,0,1,-2.84164,14.0151)"><rect x="2224.62" y="690.598" width="81.348" height="4.702" style="fill:white;"/></g><path d="M2344.66,670.766L2342.93,719.997L2387.79,716.319L2344.66,670.766Z" style="fill:rgb(186,228,255);"/><path d="M2344.66,670.766L2343.54,715.482L2387.79,716.319L2344.66,670.766Z" style="fill:rgb(232,246,255);"/></g><g transform="matrix(0.804749,0,0,0.804749,300.43,248.128)"><path d="M1456.73,1529.82L1442.94,1643.37L2696.83,2679.68L3566.53,2312.61L1456.73,1529.82Z" style="fill-opacity:0.2;"/></g><g transform="matrix(0.804749,0,0,0.804749,184.289,150.177)"><ellipse cx="3821.75" cy="1292.49" rx="319.442" ry="88.7" style="fill-opacity:0.2;"/></g><g transform="matrix(0.804749,0,0,0.804749,300.43,248.128)"><ellipse cx="313.262" cy="640.422" rx="347.671" ry="63.082" style="fill-opacity:0.2;"/></g><g><g transform="matrix(1,0,0,1,-103.056,-62.5137)"><path d="M354.41,1615.02C354.41,1615.02 763.701,1428.79 932.253,1352.1C950.571,1343.77 971.544,1343.49 990.076,1351.34C1008.61,1359.19 1107,1418.37 1113.18,1427.92C1156.19,1494.42 1096.72,1581.14 1119.42,1644.79C1130.38,1675.51 1152.66,1700.89 1181.7,1715.74C1362.34,1808.07 2022.36,2145.43 2022.36,2145.43L371.081,2140.52L354.41,1615.02Z" style="fill:rgb(240,154,188);"/></g><g transform="matrix(1,0,0,1,-103.056,-62.5137)"><path d="M354.41,1615.02C354.41,1615.02 763.701,1428.79 932.253,1352.1C950.571,1343.77 971.544,1343.49 990.076,1351.34C1008.61,1359.19 1107,1418.37 1113.18,1427.92C1156.19,1494.42 1096.72,1581.14 1119.42,1644.79C1130.38,1675.51 1152.66,1700.89 1181.7,1715.74C1362.34,1808.07 2022.36,2145.43 2022.36,2145.43L371.081,2140.52L354.41,1615.02Z" style="fill:url(#_Linear2);"/></g><path d="M354.41,1615.02C354.41,1615.02 763.701,1428.79 932.253,1352.1C950.571,1343.77 971.544,1343.49 990.076,1351.34C1008.61,1359.19 1023,1374.44 1029.76,1393.4C1056.37,1467.99 1096.72,1581.14 1119.42,1644.79C1130.38,1675.51 1152.66,1700.89 1181.7,1715.74C1362.34,1808.07 2022.36,2145.43 2022.36,2145.43L371.081,2140.52L354.41,1615.02Z" style="fill:rgb(236,97,152);"/><g transform="matrix(0.749299,-0.353098,0.266975,0.56654,-165.189,883.901)"><path d="M914.422,1465.18C914.422,1461.74 911.629,1458.95 908.189,1458.95L762.427,1458.95C758.987,1458.95 756.194,1461.74 756.194,1465.18L756.194,1477.65C756.194,1481.09 758.987,1483.88 762.427,1483.88L908.189,1483.88C911.629,1483.88 914.422,1481.09 914.422,1477.65L914.422,1465.18Z" style="fill:rgb(196,64,107);"/></g><path d="M353.114,2069.74L1117.2,1702.35L1121.69,1726.28L349.659,2106.88L353.114,2069.74Z" style="fill:rgb(233,69,133);"/><g transform="matrix(0.744439,0,0,0.744439,258.383,462.101)"><g transform="matrix(0.879856,-0.47524,1.03712,0.576365,-1963.49,1384.14)"><path d="M1383.46,1921.71C1383.46,1899.33 1365.29,1881.15 1342.91,1881.15L1173.05,1881.15C1167.31,1881.15 1186.01,1854.67 1181.06,1856.82C1177.3,1858.46 1149.68,1888.33 1146.62,1890.96C1137.97,1898.4 1132.49,1909.42 1132.49,1921.71L1132.49,2002.83C1132.49,2025.21 1150.66,2043.39 1173.05,2043.39L1342.91,2043.39C1356.07,2043.39 1399.43,2004.92 1406.84,1995.19C1412.03,1988.37 1383.46,2012.05 1383.46,2002.83L1383.46,1921.71Z" style="fill:rgb(196,64,107);"/></g><g transform="matrix(0.879856,-0.47524,1.03712,0.576365,-1969.29,1350.24)"><path d="M1383.46,1921.71C1383.46,1899.33 1365.29,1881.15 1342.91,1881.15L1173.05,1881.15C1150.66,1881.15 1132.49,1899.33 1132.49,1921.71L1132.49,2002.83C1132.49,2025.21 1150.66,2043.39 1173.05,2043.39L1342.91,2043.39C1365.29,2043.39 1383.46,2025.21 1383.46,2002.83L1383.46,1921.71Z" style="fill:rgb(240,154,188);"/></g></g><g transform="matrix(0.744439,0,0,0.744439,-23.0564,606.032)"><g transform="matrix(0.879856,-0.47524,1.03712,0.576365,-1963.49,1384.14)"><path d="M1383.46,1921.71C1383.46,1899.33 1365.29,1881.15 1342.91,1881.15L1173.05,1881.15C1167.31,1881.15 1186.01,1854.67 1181.06,1856.82C1177.3,1858.46 1149.68,1888.33 1146.62,1890.96C1137.97,1898.4 1132.49,1909.42 1132.49,1921.71L1132.49,2002.83C1132.49,2025.21 1150.66,2043.39 1173.05,2043.39L1342.91,2043.39C1356.07,2043.39 1399.43,2004.92 1406.84,1995.19C1412.03,1988.37 1383.46,2012.05 1383.46,2002.83L1383.46,1921.71Z" style="fill:rgb(196,64,107);"/></g><g transform="matrix(0.879856,-0.47524,1.03712,0.576365,-1969.29,1350.24)"><path d="M1383.46,1921.71C1383.46,1899.33 1365.29,1881.15 1342.91,1881.15L1173.05,1881.15C1150.66,1881.15 1132.49,1899.33 1132.49,1921.71L1132.49,2002.83C1132.49,2025.21 1150.66,2043.39 1173.05,2043.39L1342.91,2043.39C1365.29,2043.39 1383.46,2025.21 1383.46,2002.83L1383.46,1921.71Z" style="fill:rgb(240,154,188);"/></g></g><g transform="matrix(0.744439,0,0,0.744439,-322.309,744.416)"><g transform="matrix(0.879856,-0.47524,1.03712,0.576365,-1963.49,1384.14)"><path d="M1383.46,1921.71C1383.46,1899.33 1365.29,1881.15 1342.91,1881.15L1173.05,1881.15C1167.31,1881.15 1186.01,1854.67 1181.06,1856.82C1177.3,1858.46 1149.68,1888.33 1146.62,1890.96C1137.97,1898.4 1132.49,1909.42 1132.49,1921.71L1132.49,2002.83C1132.49,2025.21 1150.66,2043.39 1173.05,2043.39L1342.91,2043.39C1356.07,2043.39 1399.43,2004.92 1406.84,1995.19C1412.03,1988.37 1383.46,2012.05 1383.46,2002.83L1383.46,1921.71Z" style="fill:rgb(196,64,107);"/></g><g transform="matrix(0.879856,-0.47524,1.03712,0.576365,-1969.29,1350.24)"><path d="M1383.46,1921.71C1383.46,1899.33 1365.29,1881.15 1342.91,1881.15L1173.05,1881.15C1150.66,1881.15 1132.49,1899.33 1132.49,1921.71L1132.49,2002.83C1132.49,2025.21 1150.66,2043.39 1173.05,2043.39L1342.91,2043.39C1365.29,2043.39 1383.46,2025.21 1383.46,2002.83L1383.46,1921.71Z" style="fill:rgb(240,154,188);"/></g></g><g transform="matrix(0.744439,0,0,0.744439,474.877,568.513)"><g transform="matrix(0.879856,-0.47524,1.03712,0.576365,-1963.49,1384.14)"><path d="M1383.46,1921.71C1383.46,1899.33 1365.29,1881.15 1342.91,1881.15L1173.05,1881.15C1167.31,1881.15 1186.01,1854.67 1181.06,1856.82C1177.3,1858.46 1149.68,1888.33 1146.62,1890.96C1137.97,1898.4 1132.49,1909.42 1132.49,1921.71L1132.49,2002.83C1132.49,2025.21 1150.66,2043.39 1173.05,2043.39L1342.91,2043.39C1356.07,2043.39 1399.43,2004.92 1406.84,1995.19C1412.03,1988.37 1383.46,2012.05 1383.46,2002.83L1383.46,1921.71Z" style="fill:rgb(196,64,107);"/></g><g transform="matrix(0.879856,-0.47524,1.03712,0.576365,-1969.29,1350.24)"><path d="M1383.46,1921.71C1383.46,1899.33 1365.29,1881.15 1342.91,1881.15L1173.05,1881.15C1150.66,1881.15 1132.49,1899.33 1132.49,1921.71L1132.49,2002.83C1132.49,2025.21 1150.66,2043.39 1173.05,2043.39L1342.91,2043.39C1365.29,2043.39 1383.46,2025.21 1383.46,2002.83L1383.46,1921.71Z" style="fill:rgb(240,154,188);"/></g></g><g transform="matrix(0.744439,0,0,0.744439,193.438,712.444)"><g transform="matrix(0.879856,-0.47524,1.03712,0.576365,-1963.49,1384.14)"><path d="M1383.46,1921.71C1383.46,1899.33 1365.29,1881.15 1342.91,1881.15L1173.05,1881.15C1167.31,1881.15 1186.01,1854.67 1181.06,1856.82C1177.3,1858.46 1149.68,1888.33 1146.62,1890.96C1137.97,1898.4 1132.49,1909.42 1132.49,1921.71L1132.49,2002.83C1132.49,2025.21 1150.66,2043.39 1173.05,2043.39L1342.91,2043.39C1356.07,2043.39 1399.43,2004.92 1406.84,1995.19C1412.03,1988.37 1383.46,2012.05 1383.46,2002.83L1383.46,1921.71Z" style="fill:rgb(196,64,107);"/></g><g transform="matrix(0.879856,-0.47524,1.03712,0.576365,-1969.29,1350.24)"><path d="M1383.46,1921.71C1383.46,1899.33 1365.29,1881.15 1342.91,1881.15L1173.05,1881.15C1150.66,1881.15 1132.49,1899.33 1132.49,1921.71L1132.49,2002.83C1132.49,2025.21 1150.66,2043.39 1173.05,2043.39L1342.91,2043.39C1365.29,2043.39 1383.46,2025.21 1383.46,2002.83L1383.46,1921.71Z" style="fill:rgb(240,154,188);"/></g></g><g transform="matrix(0.744439,0,0,0.744439,-105.815,850.828)"><g transform="matrix(0.879856,-0.47524,1.03712,0.576365,-1963.49,1384.14)"><path d="M1383.46,1921.71C1383.46,1899.33 1365.29,1881.15 1342.91,1881.15L1173.05,1881.15C1167.31,1881.15 1186.01,1854.67 1181.06,1856.82C1177.3,1858.46 1149.68,1888.33 1146.62,1890.96C1137.97,1898.4 1132.49,1909.42 1132.49,1921.71L1132.49,2002.83C1132.49,2025.21 1150.66,2043.39 1173.05,2043.39L1342.91,2043.39C1356.07,2043.39 1399.43,2004.92 1406.84,1995.19C1412.03,1988.37 1383.46,2012.05 1383.46,2002.83L1383.46,1921.71Z" style="fill:rgb(196,64,107);"/></g><g transform="matrix(0.879856,-0.47524,1.03712,0.576365,-1969.29,1350.24)"><path d="M1383.46,1921.71C1383.46,1899.33 1365.29,1881.15 1342.91,1881.15L1173.05,1881.15C1150.66,1881.15 1132.49,1899.33 1132.49,1921.71L1132.49,2002.83C1132.49,2025.21 1150.66,2043.39 1173.05,2043.39L1342.91,2043.39C1365.29,2043.39 1383.46,2025.21 1383.46,2002.83L1383.46,1921.71Z" style="fill:rgb(240,154,188);"/></g></g><g transform="matrix(0.744439,0,0,0.744439,691.371,674.924)"><g transform="matrix(0.879856,-0.47524,1.03712,0.576365,-1963.49,1384.14)"><path d="M1383.46,1921.71C1383.46,1899.33 1365.29,1881.15 1342.91,1881.15L1173.05,1881.15C1167.31,1881.15 1186.01,1854.67 1181.06,1856.82C1177.3,1858.46 1149.68,1888.33 1146.62,1890.96C1137.97,1898.4 1132.49,1909.42 1132.49,1921.71L1132.49,2002.83C1132.49,2025.21 1150.66,2043.39 1173.05,2043.39L1342.91,2043.39C1356.07,2043.39 1399.43,2004.92 1406.84,1995.19C1412.03,1988.37 1383.46,2012.05 1383.46,2002.83L1383.46,1921.71Z" style="fill:rgb(196,64,107);"/></g><g transform="matrix(0.879856,-0.47524,1.03712,0.576365,-1969.29,1350.24)"><path d="M1383.46,1921.71C1383.46,1899.33 1365.29,1881.15 1342.91,1881.15L1173.05,1881.15C1150.66,1881.15 1132.49,1899.33 1132.49,1921.71L1132.49,2002.83C1132.49,2025.21 1150.66,2043.39 1173.05,2043.39L1342.91,2043.39C1365.29,2043.39 1383.46,2025.21 1383.46,2002.83L1383.46,1921.71Z" style="fill:rgb(240,154,188);"/></g></g><g transform="matrix(0.744439,0,0,0.744439,409.932,818.855)"><g transform="matrix(0.879856,-0.47524,1.03712,0.576365,-1963.49,1384.14)"><path d="M1383.46,1921.71C1383.46,1899.33 1365.29,1881.15 1342.91,1881.15L1173.05,1881.15C1167.31,1881.15 1186.01,1854.67 1181.06,1856.82C1177.3,1858.46 1149.68,1888.33 1146.62,1890.96C1137.97,1898.4 1132.49,1909.42 1132.49,1921.71L1132.49,2002.83C1132.49,2025.21 1150.66,2043.39 1173.05,2043.39L1342.91,2043.39C1356.07,2043.39 1399.43,2004.92 1406.84,1995.19C1412.03,1988.37 1383.46,2012.05 1383.46,2002.83L1383.46,1921.71Z" style="fill:rgb(196,64,107);"/></g><g transform="matrix(0.879856,-0.47524,1.03712,0.576365,-1969.29,1350.24)"><path d="M1383.46,1921.71C1383.46,1899.33 1365.29,1881.15 1342.91,1881.15L1173.05,1881.15C1150.66,1881.15 1132.49,1899.33 1132.49,1921.71L1132.49,2002.83C1132.49,2025.21 1150.66,2043.39 1173.05,2043.39L1342.91,2043.39C1365.29,2043.39 1383.46,2025.21 1383.46,2002.83L1383.46,1921.71Z" style="fill:rgb(240,154,188);"/></g></g><g transform="matrix(1.0308,-0.481924,0.373119,1.23042,-1220.49,-103.071)"><path d="M1497.05,1818.75C1497.05,1807.83 1487.13,1798.96 1474.91,1798.96L658.66,1798.96C646.444,1798.96 636.527,1807.83 636.527,1818.75L636.527,2011.64C636.527,2022.56 646.444,2031.42 658.66,2031.42L1474.91,2031.42C1487.13,2031.42 1497.05,2022.56 1497.05,2011.64L1497.05,1818.75Z" style="fill:rgb(240,154,188);"/></g><path d="M977.421,1397.65C975.316,1397.98 973.188,1398.63 971.087,1399.61L129.688,1792.99C117.097,1798.87 110.182,1814.56 114.258,1828L185.773,2063.84C187.879,2063.5 190.007,2062.86 192.108,2061.87L1033.51,1668.5C1046.1,1662.61 1053.01,1646.92 1048.94,1633.48L977.421,1397.65Z" style="fill:rgb(250,221,232);"/><g transform="matrix(0.264022,-0.118933,0.0823148,0.243363,75.0067,1529.62)"><path d="M1285.23,1254.28C1295.69,1256.47 1305.78,1259.58 1315.5,1263.61C1336.75,1272.43 1354.99,1284.86 1370.23,1300.9C1385.47,1316.94 1397.5,1335.99 1406.32,1358.04C1415.14,1380.1 1419.55,1403.55 1419.55,1428.41L1304.07,1428.41C1303.27,1407.56 1296.65,1391.92 1284.22,1381.5C1271.79,1371.07 1257.55,1365.86 1241.51,1365.86C1222.27,1365.86 1207.43,1372.08 1197.01,1384.51C1186.58,1396.94 1181.37,1411.17 1181.37,1427.21C1181.37,1438.44 1184.17,1449.47 1189.79,1460.29C1195.4,1471.12 1209.84,1480.94 1233.09,1489.77L1305.27,1518.64C1350.98,1536.28 1382.46,1560.34 1399.7,1590.81C1416.94,1621.29 1425.57,1654.57 1425.57,1690.66C1425.57,1716.32 1420.95,1740.18 1411.73,1762.24C1402.51,1784.29 1389.88,1803.74 1373.84,1820.58C1357.8,1837.42 1338.55,1850.65 1316.1,1860.28C1306.2,1864.52 1295.91,1867.83 1285.23,1870.2L1285.23,1938.99L1200.86,1938.99L1200.86,1870.64C1169.12,1864.14 1141.37,1849.86 1117.61,1827.8C1100.77,1812.56 1087.13,1793.51 1076.71,1770.65C1066.28,1747.8 1060.67,1721.13 1059.87,1690.66L1175.35,1690.66C1177.76,1707.5 1183.57,1723.14 1192.79,1737.57C1202.02,1752.01 1218.26,1759.23 1241.51,1759.23C1259.16,1759.23 1275,1753.41 1289.03,1741.78C1303.07,1730.16 1310.08,1713.92 1310.08,1693.07C1310.08,1676.22 1305.67,1661.79 1296.85,1649.76C1288.03,1637.73 1271.99,1627.3 1248.73,1618.48L1189.79,1596.83C1151.29,1582.39 1121.02,1560.94 1098.96,1532.47C1076.91,1504 1065.88,1469.32 1065.88,1428.41C1065.88,1402.75 1070.69,1378.89 1080.32,1356.84C1089.94,1334.78 1103.17,1315.74 1120.02,1299.7C1136.06,1283.66 1154.9,1271.43 1176.56,1263.01C1184.44,1259.94 1192.55,1257.43 1200.86,1255.48L1200.86,1169.48L1285.23,1169.48L1285.23,1254.28Z" style="fill:white;fill-rule:nonzero;"/></g><g transform="matrix(0.264022,-0.118933,0.0823148,0.243363,319.809,1413.08)"><path d="M1285.23,1254.28C1295.69,1256.47 1305.78,1259.58 1315.5,1263.61C1336.75,1272.43 1354.99,1284.86 1370.23,1300.9C1385.47,1316.94 1397.5,1335.99 1406.32,1358.04C1415.14,1380.1 1419.55,1403.55 1419.55,1428.41L1304.07,1428.41C1303.27,1407.56 1296.65,1391.92 1284.22,1381.5C1271.79,1371.07 1257.55,1365.86 1241.51,1365.86C1222.27,1365.86 1207.43,1372.08 1197.01,1384.51C1186.58,1396.94 1181.37,1411.17 1181.37,1427.21C1181.37,1438.44 1184.17,1449.47 1189.79,1460.29C1195.4,1471.12 1209.84,1480.94 1233.09,1489.77L1305.27,1518.64C1350.98,1536.28 1382.46,1560.34 1399.7,1590.81C1416.94,1621.29 1425.57,1654.57 1425.57,1690.66C1425.57,1716.32 1420.95,1740.18 1411.73,1762.24C1402.51,1784.29 1389.88,1803.74 1373.84,1820.58C1357.8,1837.42 1338.55,1850.65 1316.1,1860.28C1306.2,1864.52 1295.91,1867.83 1285.23,1870.2L1285.23,1938.99L1200.86,1938.99L1200.86,1870.64C1169.12,1864.14 1141.37,1849.86 1117.61,1827.8C1100.77,1812.56 1087.13,1793.51 1076.71,1770.65C1066.28,1747.8 1060.67,1721.13 1059.87,1690.66L1175.35,1690.66C1177.76,1707.5 1183.57,1723.14 1192.79,1737.57C1202.02,1752.01 1218.26,1759.23 1241.51,1759.23C1259.16,1759.23 1275,1753.41 1289.03,1741.78C1303.07,1730.16 1310.08,1713.92 1310.08,1693.07C1310.08,1676.22 1305.67,1661.79 1296.85,1649.76C1288.03,1637.73 1271.99,1627.3 1248.73,1618.48L1189.79,1596.83C1151.29,1582.39 1121.02,1560.94 1098.96,1532.47C1076.91,1504 1065.88,1469.32 1065.88,1428.41C1065.88,1402.75 1070.69,1378.89 1080.32,1356.84C1089.94,1334.78 1103.17,1315.74 1120.02,1299.7C1136.06,1283.66 1154.9,1271.43 1176.56,1263.01C1184.44,1259.94 1192.55,1257.43 1200.86,1255.48L1200.86,1169.48L1285.23,1169.48L1285.23,1254.28Z" style="fill:white;fill-rule:nonzero;"/></g><g transform="matrix(0.264022,-0.118933,0.0823148,0.243363,447.124,1351.85)"><path d="M1285.23,1254.28C1295.69,1256.47 1305.78,1259.58 1315.5,1263.61C1336.75,1272.43 1354.99,1284.86 1370.23,1300.9C1385.47,1316.94 1397.5,1335.99 1406.32,1358.04C1415.14,1380.1 1419.55,1403.55 1419.55,1428.41L1304.07,1428.41C1303.27,1407.56 1296.65,1391.92 1284.22,1381.5C1271.79,1371.07 1257.55,1365.86 1241.51,1365.86C1222.27,1365.86 1207.43,1372.08 1197.01,1384.51C1186.58,1396.94 1181.37,1411.17 1181.37,1427.21C1181.37,1438.44 1184.17,1449.47 1189.79,1460.29C1195.4,1471.12 1209.84,1480.94 1233.09,1489.77L1305.27,1518.64C1350.98,1536.28 1382.46,1560.34 1399.7,1590.81C1416.94,1621.29 1425.57,1654.57 1425.57,1690.66C1425.57,1716.32 1420.95,1740.18 1411.73,1762.24C1402.51,1784.29 1389.88,1803.74 1373.84,1820.58C1357.8,1837.42 1338.55,1850.65 1316.1,1860.28C1306.2,1864.52 1295.91,1867.83 1285.23,1870.2L1285.23,1938.99L1200.86,1938.99L1200.86,1870.64C1169.12,1864.14 1141.37,1849.86 1117.61,1827.8C1100.77,1812.56 1087.13,1793.51 1076.71,1770.65C1066.28,1747.8 1060.67,1721.13 1059.87,1690.66L1175.35,1690.66C1177.76,1707.5 1183.57,1723.14 1192.79,1737.57C1202.02,1752.01 1218.26,1759.23 1241.51,1759.23C1259.16,1759.23 1275,1753.41 1289.03,1741.78C1303.07,1730.16 1310.08,1713.92 1310.08,1693.07C1310.08,1676.22 1305.67,1661.79 1296.85,1649.76C1288.03,1637.73 1271.99,1627.3 1248.73,1618.48L1189.79,1596.83C1151.29,1582.39 1121.02,1560.94 1098.96,1532.47C1076.91,1504 1065.88,1469.32 1065.88,1428.41C1065.88,1402.75 1070.69,1378.89 1080.32,1356.84C1089.94,1334.78 1103.17,1315.74 1120.02,1299.7C1136.06,1283.66 1154.9,1271.43 1176.56,1263.01C1184.44,1259.94 1192.55,1257.43 1200.86,1255.48L1200.86,1169.48L1285.23,1169.48L1285.23,1254.28Z" style="fill:white;fill-rule:nonzero;"/></g><g transform="matrix(0.900698,-0.434445,0.434445,0.900698,-705.285,466.007)"><rect x="666.747" y="1775.81" width="25.091" height="25.091" style="fill:white;"/></g></g><g><g transform="matrix(0.838813,-0.362552,0.0300193,0.982541,-23.3262,338.551)"><path d="M570.558,948.763C570.558,944.358 572.308,940.132 575.424,937.017C578.539,933.902 582.764,932.152 587.17,932.152L1206.56,932.152C1210.96,932.152 1214.63,934.595 1218.3,937.017C1225.05,941.462 1247.4,955.691 1247.4,960.096C1247.4,1015.08 1223.17,1179.46 1223.17,1234.45C1223.17,1238.85 1221.42,1243.08 1218.3,1246.19C1215.19,1249.31 1210.96,1251.06 1206.56,1251.06C1123.74,1251.06 757.244,1251.06 701.384,1251.06C696.82,1251.06 692.457,1252.94 689.32,1256.25C674.495,1271.91 646.767,1345.33 616.609,1377.19C611.933,1382.13 595.048,1365.51 581.024,1355.44C575.217,1351.27 570.558,1346.81 570.558,1340.01C570.558,1244.39 570.558,1012.74 570.558,948.763Z" style="fill:rgb(63,102,175);"/></g><g transform="matrix(0.838813,-0.362552,0.0300193,0.982541,2.64159,349.497)"><path d="M570.558,948.763C570.558,944.358 572.308,940.132 575.424,937.017C578.539,933.902 582.764,932.152 587.17,932.152L1206.56,932.152C1210.96,932.152 1215.19,933.902 1218.3,937.017C1221.42,940.132 1223.17,944.358 1223.17,948.763C1223.17,1003.75 1223.17,1179.46 1223.17,1234.45C1223.17,1238.85 1221.42,1243.08 1218.3,1246.19C1215.19,1249.31 1210.96,1251.06 1206.56,1251.06C1123.74,1251.06 757.244,1251.06 701.384,1251.06C696.82,1251.06 692.457,1252.94 689.32,1256.25C674.495,1271.91 629.393,1319.56 599.234,1351.43C594.558,1356.37 587.343,1357.96 581.024,1355.44C574.705,1352.92 570.558,1346.81 570.558,1340.01C570.558,1244.39 570.558,1012.74 570.558,948.763Z" style="fill:rgb(45,69,132);"/></g></g><g transform="matrix(0.272964,-0.0966616,0.00732842,0.268661,340.72,832.359)"><path d="M1285.23,1254.28C1295.69,1256.47 1305.78,1259.58 1315.5,1263.61C1336.75,1272.43 1354.99,1284.86 1370.23,1300.9C1385.47,1316.94 1397.5,1335.99 1406.32,1358.04C1415.14,1380.1 1419.55,1403.55 1419.55,1428.41L1304.07,1428.41C1303.27,1407.56 1296.65,1391.92 1284.22,1381.5C1271.79,1371.07 1257.55,1365.86 1241.51,1365.86C1222.27,1365.86 1207.43,1372.08 1197.01,1384.51C1186.58,1396.94 1181.37,1411.17 1181.37,1427.21C1181.37,1438.44 1184.17,1449.47 1189.79,1460.29C1195.4,1471.12 1209.84,1480.94 1233.09,1489.77L1305.27,1518.64C1350.98,1536.28 1382.46,1560.34 1399.7,1590.81C1416.94,1621.29 1425.57,1654.57 1425.57,1690.66C1425.57,1716.32 1420.95,1740.18 1411.73,1762.24C1402.51,1784.29 1389.88,1803.74 1373.84,1820.58C1357.8,1837.42 1338.55,1850.65 1316.1,1860.28C1306.2,1864.52 1295.91,1867.83 1285.23,1870.2L1285.23,1938.99L1200.86,1938.99L1200.86,1870.64C1169.12,1864.14 1141.37,1849.86 1117.61,1827.8C1100.77,1812.56 1087.13,1793.51 1076.71,1770.65C1066.28,1747.8 1060.67,1721.13 1059.87,1690.66L1175.35,1690.66C1177.76,1707.5 1183.57,1723.14 1192.79,1737.57C1202.02,1752.01 1218.26,1759.23 1241.51,1759.23C1259.16,1759.23 1275,1753.41 1289.03,1741.78C1303.07,1730.16 1310.08,1713.92 1310.08,1693.07C1310.08,1676.22 1305.67,1661.79 1296.85,1649.76C1288.03,1637.73 1271.99,1627.3 1248.73,1618.48L1189.79,1596.83C1151.29,1582.39 1121.02,1560.94 1098.96,1532.47C1076.91,1504 1065.88,1469.32 1065.88,1428.41C1065.88,1402.75 1070.69,1378.89 1080.32,1356.84C1089.94,1334.78 1103.17,1315.74 1120.02,1299.7C1136.06,1283.66 1154.9,1271.43 1176.56,1263.01C1184.44,1259.94 1192.55,1257.43 1200.86,1255.48L1200.86,1169.48L1285.23,1169.48L1285.23,1254.28Z" style="fill:rgb(217,239,251);fill-rule:nonzero;"/></g><g transform="matrix(0.272964,-0.0966616,0.00732842,0.268661,470.434,776.853)"><path d="M1285.23,1254.28C1295.69,1256.47 1305.78,1259.58 1315.5,1263.61C1336.75,1272.43 1354.99,1284.86 1370.23,1300.9C1385.47,1316.94 1397.5,1335.99 1406.32,1358.04C1415.14,1380.1 1419.55,1403.55 1419.55,1428.41L1304.07,1428.41C1303.27,1407.56 1296.65,1391.92 1284.22,1381.5C1271.79,1371.07 1257.55,1365.86 1241.51,1365.86C1222.27,1365.86 1207.43,1372.08 1197.01,1384.51C1186.58,1396.94 1181.37,1411.17 1181.37,1427.21C1181.37,1438.44 1184.17,1449.47 1189.79,1460.29C1195.4,1471.12 1209.84,1480.94 1233.09,1489.77L1305.27,1518.64C1350.98,1536.28 1382.46,1560.34 1399.7,1590.81C1416.94,1621.29 1425.57,1654.57 1425.57,1690.66C1425.57,1716.32 1420.95,1740.18 1411.73,1762.24C1402.51,1784.29 1389.88,1803.74 1373.84,1820.58C1357.8,1837.42 1338.55,1850.65 1316.1,1860.28C1306.2,1864.52 1295.91,1867.83 1285.23,1870.2L1285.23,1938.99L1200.86,1938.99L1200.86,1870.64C1169.12,1864.14 1141.37,1849.86 1117.61,1827.8C1100.77,1812.56 1087.13,1793.51 1076.71,1770.65C1066.28,1747.8 1060.67,1721.13 1059.87,1690.66L1175.35,1690.66C1177.76,1707.5 1183.57,1723.14 1192.79,1737.57C1202.02,1752.01 1218.26,1759.23 1241.51,1759.23C1259.16,1759.23 1275,1753.41 1289.03,1741.78C1303.07,1730.16 1310.08,1713.92 1310.08,1693.07C1310.08,1676.22 1305.67,1661.79 1296.85,1649.76C1288.03,1637.73 1271.99,1627.3 1248.73,1618.48L1189.79,1596.83C1151.29,1582.39 1121.02,1560.94 1098.96,1532.47C1076.91,1504 1065.88,1469.32 1065.88,1428.41C1065.88,1402.75 1070.69,1378.89 1080.32,1356.84C1089.94,1334.78 1103.17,1315.74 1120.02,1299.7C1136.06,1283.66 1154.9,1271.43 1176.56,1263.01C1184.44,1259.94 1192.55,1257.43 1200.86,1255.48L1200.86,1169.48L1285.23,1169.48L1285.23,1254.28Z" style="fill:rgb(217,239,251);fill-rule:nonzero;"/></g><g transform="matrix(0.272964,-0.0966616,0.00732842,0.268661,592.19,719.036)"><path d="M1285.23,1254.28C1295.69,1256.47 1305.78,1259.58 1315.5,1263.61C1336.75,1272.43 1354.99,1284.86 1370.23,1300.9C1385.47,1316.94 1397.5,1335.99 1406.32,1358.04C1415.14,1380.1 1419.55,1403.55 1419.55,1428.41L1304.07,1428.41C1303.27,1407.56 1296.65,1391.92 1284.22,1381.5C1271.79,1371.07 1257.55,1365.86 1241.51,1365.86C1222.27,1365.86 1207.43,1372.08 1197.01,1384.51C1186.58,1396.94 1181.37,1411.17 1181.37,1427.21C1181.37,1438.44 1184.17,1449.47 1189.79,1460.29C1195.4,1471.12 1209.84,1480.94 1233.09,1489.77L1305.27,1518.64C1350.98,1536.28 1382.46,1560.34 1399.7,1590.81C1416.94,1621.29 1425.57,1654.57 1425.57,1690.66C1425.57,1716.32 1420.95,1740.18 1411.73,1762.24C1402.51,1784.29 1389.88,1803.74 1373.84,1820.58C1357.8,1837.42 1338.55,1850.65 1316.1,1860.28C1306.2,1864.52 1295.91,1867.83 1285.23,1870.2L1285.23,1938.99L1200.86,1938.99L1200.86,1870.64C1169.12,1864.14 1141.37,1849.86 1117.61,1827.8C1100.77,1812.56 1087.13,1793.51 1076.71,1770.65C1066.28,1747.8 1060.67,1721.13 1059.87,1690.66L1175.35,1690.66C1177.76,1707.5 1183.57,1723.14 1192.79,1737.57C1202.02,1752.01 1218.26,1759.23 1241.51,1759.23C1259.16,1759.23 1275,1753.41 1289.03,1741.78C1303.07,1730.16 1310.08,1713.92 1310.08,1693.07C1310.08,1676.22 1305.67,1661.79 1296.85,1649.76C1288.03,1637.73 1271.99,1627.3 1248.73,1618.48L1189.79,1596.83C1151.29,1582.39 1121.02,1560.94 1098.96,1532.47C1076.91,1504 1065.88,1469.32 1065.88,1428.41C1065.88,1402.75 1070.69,1378.89 1080.32,1356.84C1089.94,1334.78 1103.17,1315.74 1120.02,1299.7C1136.06,1283.66 1154.9,1271.43 1176.56,1263.01C1184.44,1259.94 1192.55,1257.43 1200.86,1255.48L1200.86,1169.48L1285.23,1169.48L1285.23,1254.28Z" style="fill:rgb(217,239,251);fill-rule:nonzero;"/></g><g transform="matrix(0.890751,-0.359866,0.359866,0.890751,1598.82,-227.602)"><g id="path4476" transform="matrix(0.356448,0,0,-0.356448,-3755.96,2411.35)"><path d="M12921.5,1381.7C13159.7,1244.2 13546,1244.2 13784.2,1381.7C14022.5,1519.2 14022.5,1742.3 13784.2,1879.8C13546,2017.3 13159.8,2017.3 12921.5,1879.8C12683.3,1742.2 12683.3,1519.2 12921.5,1381.7" style="fill:rgb(230,137,19);fill-rule:nonzero;"/></g><g id="path4478" transform="matrix(0.356448,0,0,-0.356448,-3755.96,2411.35)"><path d="M12921.5,1847.8C13159.8,1985.3 13546,1985.3 13784.2,1847.8C13896.3,1783.1 13955.6,1699.5 13962.2,1614.8C13955.6,1530 13896.3,1446.4 13784.2,1381.7C13546,1244.2 13159.7,1244.2 12921.5,1381.7C12809.5,1446.4 12750.1,1530 12743.5,1614.7C12750.1,1699.5 12809.5,1783.1 12921.5,1847.8" style="fill:rgb(255,158,35);fill-rule:nonzero;"/></g><g id="path4480" transform="matrix(0.356448,0,0,-0.356448,-3755.96,2411.35)"><path d="M13507.8,1476.3L13393.1,1542.5C13352.1,1492.3 13433.8,1450.7 13507.8,1476.3ZM13201.2,1737.4L13309.7,1674.7C13344.3,1716.6 13278.4,1759.2 13201.2,1737.4ZM13055.5,1820.5L13081.1,1805.7C13301.2,1921.2 13614.5,1768.5 13439.9,1599.6L13588.1,1514C13608.4,1531.5 13622.6,1550.4 13630.6,1570.8C13640.7,1596.2 13681.2,1613.6 13726.2,1610.7C13769.5,1607.9 13801.8,1601.2 13804.5,1577.7C13805.1,1572.5 13804.2,1553.5 13801.8,1548.1C13785.4,1513.1 13751.9,1476 13702.9,1447.8L13732.3,1452C13737.8,1448.8 13735.5,1426.3 13735.5,1422.2C13735.5,1418 13732.8,1413.8 13727.3,1410.7L13695.2,1392.1C13684.2,1385.8 13666.4,1385.8 13655.4,1392.1L13630.1,1406.7C13505.2,1356.6 13378.8,1356.7 13281,1413.1C13188.7,1466.4 13181.5,1535.3 13259.4,1619.7L13131.9,1693.3C13125.7,1686.5 13120.3,1678.1 13116,1668C13105.1,1642.9 13063.6,1626.3 13019.1,1629.2C12961.6,1632.8 12922.8,1669.5 12942.4,1700.9C12956.8,1724.1 12979.9,1742.8 13008.8,1762.9L12982.3,1778.2C12977.1,1781.2 12974.6,1785.1 12974.8,1789C12974.9,1792.7 12971.9,1815.8 12976.8,1818.6L13019.2,1820.5C13029.2,1826.3 13045.5,1826.3 13055.5,1820.5" style="fill:rgb(230,137,19);fill-rule:nonzero;"/></g><g id="path4482" transform="matrix(0.356448,0,0,-0.356448,-3755.96,2411.35)"><path d="M13507.8,1500.3L13393.1,1566.5C13352.1,1516.3 13433.8,1474.7 13507.8,1500.3ZM13201.2,1761.4L13309.7,1698.7C13344.3,1740.6 13278.4,1783.2 13201.2,1761.4ZM13055.5,1844.5L13081.1,1829.7C13301.2,1945.2 13614.5,1792.5 13439.9,1623.6L13588.1,1538C13608.4,1555.5 13622.6,1574.4 13630.6,1594.8C13640.7,1620.2 13681.2,1637.7 13726.2,1634.8C13779,1631.3 13815.5,1601.8 13801.8,1572.1C13785.4,1537.1 13751.9,1500 13702.9,1471.8L13727.3,1457.7C13738.3,1451.3 13738.3,1441 13727.3,1434.7L13695.2,1416.1C13684.2,1409.8 13666.4,1409.8 13655.4,1416.1L13630.1,1430.7C13505.2,1380.6 13378.8,1380.7 13281,1437.1C13188.7,1490.4 13181.5,1559.3 13259.4,1643.7L13131.9,1717.3C13125.7,1710.5 13120.3,1702.1 13116,1692C13105.1,1666.9 13063.6,1650.4 13019.1,1653.2C12961.6,1656.8 12924.3,1690.5 12943.9,1722C12958.3,1745.1 12979.9,1766.8 13008.8,1786.9L12982.3,1802.2C12972.2,1808 12972.2,1817.4 12982.3,1823.2L13019.2,1844.5C13029.2,1850.3 13045.5,1850.3 13055.5,1844.5" style="fill:rgb(255,180,63);fill-rule:nonzero;"/></g><g id="path4484" transform="matrix(0.356448,0,0,-0.356448,-3755.96,2411.35)"><path d="M12848.7,1390.2C13150.9,1215.7 13640.7,1215.7 13942.9,1390.2C14085,1472.2 14160.2,1578.2 14168.7,1685.6C14169.2,1692.1 14169.5,1897 14169.5,1903.5C14170,2018.1 14094.5,1934.4 13942.9,2021.9C13640.8,2196.3 13150.9,2196.3 12848.7,2021.9C12698.6,1935.2 12623.1,2020.2 12622.1,1906.6C12622.1,1900.3 12622.3,1695.5 12622.7,1689.1C12629.7,1580.5 12705.1,1473.1 12848.7,1390.2" style="fill:rgb(203,137,39);fill-rule:nonzero;"/></g><g id="g4486" transform="matrix(0.356448,0,0,-0.356448,-3755.96,2411.35)"><g id="g4488"><clipPath id="_clip3"><path d="M12848.7,1390.2C13150.9,1215.7 13640.7,1215.7 13942.9,1390.2C14085,1472.2 14160.2,1578.2 14168.7,1685.6C14169.2,1692 14169.5,1897 14169.5,1903.5C14170,2018.1 14094.4,1934.4 13942.9,2021.9C13640.8,2196.4 13150.9,2196.3 12848.7,2021.9C12698.6,1935.2 12623.1,2020.2 12622.1,1906.6C12622.1,1900.3 12622.3,1695.5 12622.7,1689.1C12629.7,1580.5 12705.1,1473.1 12848.7,1390.2"/></clipPath><g clip-path="url(#_clip3)"><path id="path4494" d="M14167.7,1555.6C14174.7,1555.6 14180.5,1561.3 14180.5,1568.4L14180.5,1941.9C14180.5,1948.9 14174.7,1954.7 14167.7,1954.7C14160.6,1954.7 14154.9,1948.9 14154.9,1941.9L14154.9,1568.4C14154.9,1561.3 14160.6,1555.6 14167.7,1555.6" style="fill:rgb(178,120,34);fill-rule:nonzero;"/><path id="path4496" d="M14112.3,1903.4L14112.3,1530C14112.3,1523.3 14117.5,1517.8 14124.1,1517.2L14125.3,1517.2C14132.4,1517.2 14138.2,1523 14138.2,1530L14138.2,1903.4C14138.2,1910.5 14132.4,1916.3 14125.3,1916.3L14124.1,1916.2C14117.5,1915.6 14112.3,1910.1 14112.3,1903.4" style="fill:rgb(178,120,34);fill-rule:nonzero;"/><path id="path4498" d="M14069.7,1864.9L14069.7,1491.7C14069.7,1484.9 14075.1,1479.3 14081.8,1478.8L14083,1478.7C14090.1,1478.7 14096,1484.6 14096,1491.7L14096,1864.9C14096,1872 14090.1,1877.9 14083,1877.9L14081.8,1877.8C14075.1,1877.3 14069.7,1871.7 14069.7,1864.9" style="fill:rgb(178,120,34);fill-rule:nonzero;"/><path id="path4500" d="M14027.1,1826.4L14027.1,1453.4C14027.1,1446.5 14032.6,1440.9 14039.4,1440.4L14040.7,1440.3C14047.8,1440.3 14053.7,1446.2 14053.7,1453.4L14053.7,1826.4C14053.7,1833.6 14047.8,1839.4 14040.7,1839.4L14039.4,1839.4C14032.6,1838.9 14027.1,1833.3 14027.1,1826.4" style="fill:rgb(178,120,34);fill-rule:nonzero;"/><path id="path4538" d="M13060.9,1233.8L13062.3,1233.8C13069.8,1233.8 13075.8,1239.9 13075.8,1247.3L13075.8,1619.4C13075.8,1626.9 13069.8,1632.9 13062.3,1632.9L13060.9,1632.9C13053.4,1632.9 13047.4,1626.9 13047.4,1619.4L13047.4,1247.3C13047.4,1239.9 13053.4,1233.8 13060.9,1233.8" style="fill:rgb(178,120,34);fill-rule:nonzero;"/><path id="path4540" d="M13005.7,1242.1L13007.1,1242.1C13014.5,1242.1 13020.5,1248.2 13020.5,1255.6L13020.5,1627.7C13020.5,1635.2 13014.5,1641.2 13007.1,1641.2L13005.7,1641.2C12998.3,1641.2 12992.2,1635.2 12992.2,1627.7L12992.2,1255.6C12992.2,1248.2 12998.3,1242.1 13005.7,1242.1" style="fill:rgb(178,120,34);fill-rule:nonzero;"/><path id="path4544" d="M12897.7,1671.6L12897.7,1299.2C12897.7,1291.9 12903.7,1286.3 12910.9,1285.9L12912.2,1285.9C12919.6,1285.9 12925.6,1291.9 12925.6,1299.2L12925.6,1671.6C12925.6,1679 12919.6,1685 12912.2,1685L12910.9,1685C12903.7,1684.6 12897.7,1678.9 12897.7,1671.6" style="fill:rgb(178,120,34);fill-rule:nonzero;"/><path id="path4546" d="M12858.4,1707.2L12858.4,1334.6C12858.4,1327.4 12864.2,1321.8 12871.4,1321.4L12872.7,1321.3C12880,1321.3 12886,1327.3 12886,1334.6L12886,1707.2C12886,1714.5 12880,1720.4 12872.7,1720.4L12871.4,1720.4C12864.2,1720 12858.4,1714.4 12858.4,1707.2" style="fill:rgb(178,120,34);fill-rule:nonzero;"/><path id="path4550" d="M12779.8,1778.3L12779.8,1405.4C12779.8,1398.4 12785.4,1392.8 12792.3,1392.3L12793.6,1392.3C12800.8,1392.3 12806.7,1398.2 12806.7,1405.4L12806.7,1778.3C12806.7,1785.5 12800.8,1791.4 12793.6,1791.4L12792.3,1791.4C12785.4,1790.9 12779.8,1785.3 12779.8,1778.3" style="fill:rgb(178,120,34);fill-rule:nonzero;"/><path id="path4552" d="M12740.5,1813.9L12740.5,1440.8C12740.5,1433.9 12745.9,1428.3 12752.7,1427.8L12754,1427.8C12761.2,1427.8 12767,1433.7 12767,1440.8L12767,1813.9C12767,1821 12761.2,1826.9 12754,1826.9L12752.7,1826.9C12745.9,1826.3 12740.5,1820.8 12740.5,1813.9" style="fill:rgb(178,120,34);fill-rule:nonzero;"/><path id="path4558" d="M12635.3,1534.2C12642.3,1534.2 12648.1,1540 12648.1,1547L12648.1,1920.5C12648.1,1927.6 12642.3,1933.3 12635.3,1933.3C12628.2,1933.3 12622.5,1927.6 12622.5,1920.5L12622.5,1547C12622.5,1540 12628.2,1534.2 12635.3,1534.2" style="fill:rgb(178,120,34);fill-rule:nonzero;"/></g></g></g><g id="path4560" transform="matrix(0.356448,0,0,-0.356448,-3755.96,2411.35)"><path d="M12848.7,1588.7C13150.9,1414.2 13640.7,1414.2 13942.9,1588.7C14245.1,1763.1 14245.1,2045.9 13942.9,2220.4C13640.8,2394.8 13150.9,2394.8 12848.7,2220.4C12546.6,2045.9 12546.6,1763.1 12848.7,1588.7" style="fill:rgb(223,168,87);fill-rule:nonzero;"/></g><g id="path4562" transform="matrix(0.356448,0,0,-0.356448,-3755.96,2411.35)"><path d="M12875,1603.8C13162.6,1437.8 13629,1437.8 13916.6,1603.8C14204.2,1769.9 14204.2,2039.1 13916.6,2205.2C13629,2371.3 13162.7,2371.2 12875,2205.2C12587.4,2039.1 12587.4,1769.9 12875,1603.8" style="fill:rgb(235,208,99);fill-rule:nonzero;"/></g><g id="path4564" transform="matrix(0.356448,0,0,-0.356448,-3755.96,2411.35)"><path d="M12964.5,1655.5C13202.7,1517.9 13588.9,1517.9 13827.2,1655.5C14065.4,1793 14065.4,2016 13827.2,2153.6C13589,2291.1 13202.7,2291.1 12964.5,2153.6C12726.2,2016 12726.2,1793 12964.5,1655.5" style="fill:rgb(207,140,86);fill-rule:nonzero;"/></g><g id="path4566" transform="matrix(0.356448,0,0,-0.356448,-3755.96,2411.35)"><path d="M12964.5,2121.5C13202.7,2259.1 13589,2259.1 13827.2,2121.6C13939.2,2056.9 13998.6,1973.3 14005.2,1888.5C13998.6,1803.8 13939.2,1720.2 13827.2,1655.5C13588.9,1517.9 13202.7,1517.9 12964.5,1655.5C12852.4,1720.2 12793.1,1803.8 12786.4,1888.5C12793.1,1973.2 12852.4,2056.8 12964.5,2121.5" style="fill:rgb(211,167,93);fill-rule:nonzero;"/></g><g id="path4568" transform="matrix(0.356448,0,0,-0.356448,-3755.96,2411.35)"><path d="M13550.8,1750L13436.1,1816.3C13395.1,1766.1 13476.7,1724.5 13550.8,1750ZM13244.1,2011.2L13352.7,1948.5C13387.2,1990.4 13321.4,2032.9 13244.1,2011.2ZM13098.5,2094.2L13124.1,2079.5C13344.2,2195 13657.4,2042.3 13482.8,1873.4L13631.1,1787.8C13651.4,1805.2 13665.5,1824.2 13673.6,1844.5C13681.9,1865.64 13823.1,1851.38 13823.1,1851.38L13827.4,1816.38C13827.4,1816.38 13794.8,1749.8 13745.8,1721.5L13775.2,1725.8C13780.7,1722.6 13778.5,1700.1 13778.5,1695.9C13778.5,1691.8 13775.7,1687.6 13770.2,1684.4L13738.1,1665.9C13727.1,1659.6 13709.3,1659.6 13698.3,1665.9L13673,1680.5C13548.1,1630.4 13421.7,1630.4 13324,1686.9C13231.6,1740.2 13224.4,1809.1 13302.4,1893.5L13174.8,1967.1C13168.6,1960.3 13102.8,1875.38 13102.8,1875.38L12972.1,1932.28L12973.4,1957.09C12973.4,1957.09 13030.5,2021.83 13051.7,2036.7L13025.2,2052C13020,2055 13017.5,2058.9 13017.7,2062.8C13017.9,2066.5 13014.9,2089.5 13019.7,2092.3L13062.1,2094.2C13072.2,2100 13088.4,2100 13098.5,2094.2" style="fill:rgb(207,140,86);fill-rule:nonzero;"/></g><g id="path4570" transform="matrix(0.356448,0,0,-0.356448,-3755.96,2411.35)"><path d="M13550.8,1774.1L13436.1,1840.3C13395.1,1790.1 13476.7,1748.5 13550.8,1774.1ZM13244.1,2035.2L13352.7,1972.5C13387.2,2014.4 13321.4,2056.9 13244.1,2035.2ZM13098.5,2118.3L13124.1,2103.5C13344.2,2219 13657.4,2066.3 13482.8,1897.4L13631.1,1811.8C13676.6,1847.55 13690.7,1886.31 13690.7,1886.31L13823.9,1852.13C13823.9,1852.13 13794.8,1773.8 13745.8,1745.5L13770.2,1731.4C13781.2,1725.1 13781.2,1714.8 13770.2,1708.4L13738.1,1689.9C13727.1,1683.6 13709.3,1683.6 13698.3,1689.9L13673,1704.5C13548.1,1654.4 13421.7,1654.5 13324,1710.9C13231.6,1764.2 13224.4,1833.1 13302.4,1917.5L13174.8,1991.1C13168.6,1984.3 13102.1,1900.21 13102.1,1900.21L12971.7,1955.77C12971.7,1955.77 13022.9,2040.5 13051.7,2060.7L13025.2,2076C13015.2,2081.8 13015.2,2091.2 13025.2,2096.9L13062.1,2118.3C13072.2,2124.1 13088.4,2124.1 13098.5,2118.3" style="fill:rgb(235,208,99);fill-rule:nonzero;"/></g></g><g transform="matrix(1.04689,0.496233,-0.496233,1.04689,2746.07,-1665.27)"><g id="path44761" serif:id="path4476" transform="matrix(0.356448,0,0,-0.356448,-3755.96,2411.35)"><path d="M12921.5,1381.7C13159.7,1244.2 13546,1244.2 13784.2,1381.7C14022.5,1519.2 14022.5,1742.3 13784.2,1879.8C13546,2017.3 13159.8,2017.3 12921.5,1879.8C12683.3,1742.2 12683.3,1519.2 12921.5,1381.7" style="fill:rgb(230,137,19);fill-rule:nonzero;"/></g><g id="path44781" serif:id="path4478" transform="matrix(0.356448,0,0,-0.356448,-3755.96,2411.35)"><path d="M12921.5,1847.8C13159.8,1985.3 13546,1985.3 13784.2,1847.8C13896.3,1783.1 13955.6,1699.5 13962.2,1614.8C13955.6,1530 13896.3,1446.4 13784.2,1381.7C13546,1244.2 13159.7,1244.2 12921.5,1381.7C12809.5,1446.4 12750.1,1530 12743.5,1614.7C12750.1,1699.5 12809.5,1783.1 12921.5,1847.8" style="fill:rgb(255,158,35);fill-rule:nonzero;"/></g><g id="path44801" serif:id="path4480" transform="matrix(0.356448,0,0,-0.356448,-3755.96,2411.35)"><path d="M13507.8,1476.3L13393.1,1542.5C13352.1,1492.3 13433.8,1450.7 13507.8,1476.3ZM13201.2,1737.4L13309.7,1674.7C13344.3,1716.6 13278.4,1759.2 13201.2,1737.4ZM13055.5,1820.5L13081.1,1805.7C13301.2,1921.2 13614.5,1768.5 13439.9,1599.6L13588.1,1514C13608.4,1531.5 13622.6,1550.4 13630.6,1570.8C13640.7,1596.2 13681.2,1613.6 13726.2,1610.7C13769.5,1607.9 13801.8,1601.2 13804.5,1577.7C13805.1,1572.5 13804.2,1553.5 13801.8,1548.1C13785.4,1513.1 13751.9,1476 13702.9,1447.8L13732.3,1452C13737.8,1448.8 13735.5,1426.3 13735.5,1422.2C13735.5,1418 13732.8,1413.8 13727.3,1410.7L13695.2,1392.1C13684.2,1385.8 13666.4,1385.8 13655.4,1392.1L13630.1,1406.7C13505.2,1356.6 13378.8,1356.7 13281,1413.1C13188.7,1466.4 13181.5,1535.3 13259.4,1619.7L13131.9,1693.3C13125.7,1686.5 13120.3,1678.1 13116,1668C13105.1,1642.9 13063.6,1626.3 13019.1,1629.2C12961.6,1632.8 12922.8,1669.5 12942.4,1700.9C12956.8,1724.1 12979.9,1742.8 13008.8,1762.9L12982.3,1778.2C12977.1,1781.2 12974.6,1785.1 12974.8,1789C12974.9,1792.7 12971.9,1815.8 12976.8,1818.6L13019.2,1820.5C13029.2,1826.3 13045.5,1826.3 13055.5,1820.5" style="fill:rgb(230,137,19);fill-rule:nonzero;"/></g><g id="path44821" serif:id="path4482" transform="matrix(0.356448,0,0,-0.356448,-3755.96,2411.35)"><path d="M13507.8,1500.3L13393.1,1566.5C13352.1,1516.3 13433.8,1474.7 13507.8,1500.3ZM13201.2,1761.4L13309.7,1698.7C13344.3,1740.6 13278.4,1783.2 13201.2,1761.4ZM13055.5,1844.5L13081.1,1829.7C13301.2,1945.2 13614.5,1792.5 13439.9,1623.6L13588.1,1538C13608.4,1555.5 13622.6,1574.4 13630.6,1594.8C13640.7,1620.2 13681.2,1637.7 13726.2,1634.8C13779,1631.3 13815.5,1601.8 13801.8,1572.1C13785.4,1537.1 13751.9,1500 13702.9,1471.8L13727.3,1457.7C13738.3,1451.3 13738.3,1441 13727.3,1434.7L13695.2,1416.1C13684.2,1409.8 13666.4,1409.8 13655.4,1416.1L13630.1,1430.7C13505.2,1380.6 13378.8,1380.7 13281,1437.1C13188.7,1490.4 13181.5,1559.3 13259.4,1643.7L13131.9,1717.3C13125.7,1710.5 13120.3,1702.1 13116,1692C13105.1,1666.9 13063.6,1650.4 13019.1,1653.2C12961.6,1656.8 12924.3,1690.5 12943.9,1722C12958.3,1745.1 12979.9,1766.8 13008.8,1786.9L12982.3,1802.2C12972.2,1808 12972.2,1817.4 12982.3,1823.2L13019.2,1844.5C13029.2,1850.3 13045.5,1850.3 13055.5,1844.5" style="fill:rgb(255,180,63);fill-rule:nonzero;"/></g><g id="path44841" serif:id="path4484" transform="matrix(0.356448,0,0,-0.356448,-3755.96,2411.35)"><path d="M12848.7,1390.2C13150.9,1215.7 13640.7,1215.7 13942.9,1390.2C14085,1472.2 14160.2,1578.2 14168.7,1685.6C14169.2,1692.1 14169.5,1897 14169.5,1903.5C14170,2018.1 14094.5,1934.4 13942.9,2021.9C13640.8,2196.3 13150.9,2196.3 12848.7,2021.9C12698.6,1935.2 12623.1,2020.2 12622.1,1906.6C12622.1,1900.3 12622.3,1695.5 12622.7,1689.1C12629.7,1580.5 12705.1,1473.1 12848.7,1390.2" style="fill:rgb(203,137,39);fill-rule:nonzero;"/></g><g id="g44861" serif:id="g4486" transform="matrix(0.356448,0,0,-0.356448,-3755.96,2411.35)"><g id="g44881" serif:id="g4488"><clipPath id="_clip4"><path d="M12848.7,1390.2C13150.9,1215.7 13640.7,1215.7 13942.9,1390.2C14085,1472.2 14160.2,1578.2 14168.7,1685.6C14169.2,1692 14169.5,1897 14169.5,1903.5C14170,2018.1 14094.4,1934.4 13942.9,2021.9C13640.8,2196.4 13150.9,2196.3 12848.7,2021.9C12698.6,1935.2 12623.1,2020.2 12622.1,1906.6C12622.1,1900.3 12622.3,1695.5 12622.7,1689.1C12629.7,1580.5 12705.1,1473.1 12848.7,1390.2"/></clipPath><g clip-path="url(#_clip4)"><path id="path44941" serif:id="path4494" d="M14167.7,1555.6C14174.7,1555.6 14180.5,1561.3 14180.5,1568.4L14180.5,1941.9C14180.5,1948.9 14174.7,1954.7 14167.7,1954.7C14160.6,1954.7 14154.9,1948.9 14154.9,1941.9L14154.9,1568.4C14154.9,1561.3 14160.6,1555.6 14167.7,1555.6" style="fill:rgb(178,120,34);fill-rule:nonzero;"/><path id="path44961" serif:id="path4496" d="M14112.3,1903.4L14112.3,1530C14112.3,1523.3 14117.5,1517.8 14124.1,1517.2L14125.3,1517.2C14132.4,1517.2 14138.2,1523 14138.2,1530L14138.2,1903.4C14138.2,1910.5 14132.4,1916.3 14125.3,1916.3L14124.1,1916.2C14117.5,1915.6 14112.3,1910.1 14112.3,1903.4" style="fill:rgb(178,120,34);fill-rule:nonzero;"/><path id="path44981" serif:id="path4498" d="M14069.7,1864.9L14069.7,1491.7C14069.7,1484.9 14075.1,1479.3 14081.8,1478.8L14083,1478.7C14090.1,1478.7 14096,1484.6 14096,1491.7L14096,1864.9C14096,1872 14090.1,1877.9 14083,1877.9L14081.8,1877.8C14075.1,1877.3 14069.7,1871.7 14069.7,1864.9" style="fill:rgb(178,120,34);fill-rule:nonzero;"/><path id="path45001" serif:id="path4500" d="M14027.1,1826.4L14027.1,1453.4C14027.1,1446.5 14032.6,1440.9 14039.4,1440.4L14040.7,1440.3C14047.8,1440.3 14053.7,1446.2 14053.7,1453.4L14053.7,1826.4C14053.7,1833.6 14047.8,1839.4 14040.7,1839.4L14039.4,1839.4C14032.6,1838.9 14027.1,1833.3 14027.1,1826.4" style="fill:rgb(178,120,34);fill-rule:nonzero;"/><path id="path45381" serif:id="path4538" d="M13060.9,1233.8L13062.3,1233.8C13069.8,1233.8 13075.8,1239.9 13075.8,1247.3L13075.8,1619.4C13075.8,1626.9 13069.8,1632.9 13062.3,1632.9L13060.9,1632.9C13053.4,1632.9 13047.4,1626.9 13047.4,1619.4L13047.4,1247.3C13047.4,1239.9 13053.4,1233.8 13060.9,1233.8" style="fill:rgb(178,120,34);fill-rule:nonzero;"/><path id="path45401" serif:id="path4540" d="M13005.7,1242.1L13007.1,1242.1C13014.5,1242.1 13020.5,1248.2 13020.5,1255.6L13020.5,1627.7C13020.5,1635.2 13014.5,1641.2 13007.1,1641.2L13005.7,1641.2C12998.3,1641.2 12992.2,1635.2 12992.2,1627.7L12992.2,1255.6C12992.2,1248.2 12998.3,1242.1 13005.7,1242.1" style="fill:rgb(178,120,34);fill-rule:nonzero;"/><path id="path45441" serif:id="path4544" d="M12897.7,1671.6L12897.7,1299.2C12897.7,1291.9 12903.7,1286.3 12910.9,1285.9L12912.2,1285.9C12919.6,1285.9 12925.6,1291.9 12925.6,1299.2L12925.6,1671.6C12925.6,1679 12919.6,1685 12912.2,1685L12910.9,1685C12903.7,1684.6 12897.7,1678.9 12897.7,1671.6" style="fill:rgb(178,120,34);fill-rule:nonzero;"/><path id="path45461" serif:id="path4546" d="M12858.4,1707.2L12858.4,1334.6C12858.4,1327.4 12864.2,1321.8 12871.4,1321.4L12872.7,1321.3C12880,1321.3 12886,1327.3 12886,1334.6L12886,1707.2C12886,1714.5 12880,1720.4 12872.7,1720.4L12871.4,1720.4C12864.2,1720 12858.4,1714.4 12858.4,1707.2" style="fill:rgb(178,120,34);fill-rule:nonzero;"/><path id="path45501" serif:id="path4550" d="M12779.8,1778.3L12779.8,1405.4C12779.8,1398.4 12785.4,1392.8 12792.3,1392.3L12793.6,1392.3C12800.8,1392.3 12806.7,1398.2 12806.7,1405.4L12806.7,1778.3C12806.7,1785.5 12800.8,1791.4 12793.6,1791.4L12792.3,1791.4C12785.4,1790.9 12779.8,1785.3 12779.8,1778.3" style="fill:rgb(178,120,34);fill-rule:nonzero;"/><path id="path45521" serif:id="path4552" d="M12740.5,1813.9L12740.5,1440.8C12740.5,1433.9 12745.9,1428.3 12752.7,1427.8L12754,1427.8C12761.2,1427.8 12767,1433.7 12767,1440.8L12767,1813.9C12767,1821 12761.2,1826.9 12754,1826.9L12752.7,1826.9C12745.9,1826.3 12740.5,1820.8 12740.5,1813.9" style="fill:rgb(178,120,34);fill-rule:nonzero;"/><path id="path45581" serif:id="path4558" d="M12635.3,1534.2C12642.3,1534.2 12648.1,1540 12648.1,1547L12648.1,1920.5C12648.1,1927.6 12642.3,1933.3 12635.3,1933.3C12628.2,1933.3 12622.5,1927.6 12622.5,1920.5L12622.5,1547C12622.5,1540 12628.2,1534.2 12635.3,1534.2" style="fill:rgb(178,120,34);fill-rule:nonzero;"/></g></g></g><g id="path45601" serif:id="path4560" transform="matrix(0.356448,0,0,-0.356448,-3755.96,2411.35)"><path d="M12848.7,1588.7C13150.9,1414.2 13640.7,1414.2 13942.9,1588.7C14245.1,1763.1 14245.1,2045.9 13942.9,2220.4C13640.8,2394.8 13150.9,2394.8 12848.7,2220.4C12546.6,2045.9 12546.6,1763.1 12848.7,1588.7" style="fill:rgb(223,168,87);fill-rule:nonzero;"/></g><g id="path45621" serif:id="path4562" transform="matrix(0.356448,0,0,-0.356448,-3755.96,2411.35)"><path d="M12875,1603.8C13162.6,1437.8 13629,1437.8 13916.6,1603.8C14204.2,1769.9 14204.2,2039.1 13916.6,2205.2C13629,2371.3 13162.7,2371.2 12875,2205.2C12587.4,2039.1 12587.4,1769.9 12875,1603.8" style="fill:rgb(235,208,99);fill-rule:nonzero;"/></g><g id="path45641" serif:id="path4564" transform="matrix(0.356448,0,0,-0.356448,-3755.96,2411.35)"><path d="M12964.5,1655.5C13202.7,1517.9 13588.9,1517.9 13827.2,1655.5C14065.4,1793 14065.4,2016 13827.2,2153.6C13589,2291.1 13202.7,2291.1 12964.5,2153.6C12726.2,2016 12726.2,1793 12964.5,1655.5" style="fill:rgb(207,140,86);fill-rule:nonzero;"/></g><g id="path45661" serif:id="path4566" transform="matrix(0.356448,0,0,-0.356448,-3755.96,2411.35)"><path d="M12964.5,2121.5C13202.7,2259.1 13589,2259.1 13827.2,2121.6C13939.2,2056.9 13998.6,1973.3 14005.2,1888.5C13998.6,1803.8 13939.2,1720.2 13827.2,1655.5C13588.9,1517.9 13202.7,1517.9 12964.5,1655.5C12852.4,1720.2 12793.1,1803.8 12786.4,1888.5C12793.1,1973.2 12852.4,2056.8 12964.5,2121.5" style="fill:rgb(211,167,93);fill-rule:nonzero;"/></g><g id="path45681" serif:id="path4568" transform="matrix(0.356448,0,0,-0.356448,-3755.96,2411.35)"><path d="M13550.8,1750L13436.1,1816.3C13395.1,1766.1 13476.7,1724.5 13550.8,1750ZM13244.1,2011.2L13352.7,1948.5C13387.2,1990.4 13321.4,2032.9 13244.1,2011.2ZM13098.5,2094.2L13124.1,2079.5C13344.2,2195 13657.4,2042.3 13482.8,1873.4L13631.1,1787.8C13651.4,1805.2 13665.5,1824.2 13673.6,1844.5C13681.9,1865.64 13823.1,1851.38 13823.1,1851.38L13827.4,1816.38C13827.4,1816.38 13794.8,1749.8 13745.8,1721.5L13775.2,1725.8C13780.7,1722.6 13778.5,1700.1 13778.5,1695.9C13778.5,1691.8 13775.7,1687.6 13770.2,1684.4L13738.1,1665.9C13727.1,1659.6 13709.3,1659.6 13698.3,1665.9L13673,1680.5C13548.1,1630.4 13421.7,1630.4 13324,1686.9C13231.6,1740.2 13224.4,1809.1 13302.4,1893.5L13174.8,1967.1C13168.6,1960.3 13102.8,1875.38 13102.8,1875.38L12972.1,1932.28L12973.4,1957.09C12973.4,1957.09 13030.5,2021.83 13051.7,2036.7L13025.2,2052C13020,2055 13017.5,2058.9 13017.7,2062.8C13017.9,2066.5 13014.9,2089.5 13019.7,2092.3L13062.1,2094.2C13072.2,2100 13088.4,2100 13098.5,2094.2" style="fill:rgb(207,140,86);fill-rule:nonzero;"/></g><g id="path45701" serif:id="path4570" transform="matrix(0.356448,0,0,-0.356448,-3755.96,2411.35)"><path d="M13550.8,1774.1L13436.1,1840.3C13395.1,1790.1 13476.7,1748.5 13550.8,1774.1ZM13244.1,2035.2L13352.7,1972.5C13387.2,2014.4 13321.4,2056.9 13244.1,2035.2ZM13098.5,2118.3L13124.1,2103.5C13344.2,2219 13657.4,2066.3 13482.8,1897.4L13631.1,1811.8C13676.6,1847.55 13690.7,1886.31 13690.7,1886.31L13823.9,1852.13C13823.9,1852.13 13794.8,1773.8 13745.8,1745.5L13770.2,1731.4C13781.2,1725.1 13781.2,1714.8 13770.2,1708.4L13738.1,1689.9C13727.1,1683.6 13709.3,1683.6 13698.3,1689.9L13673,1704.5C13548.1,1654.4 13421.7,1654.5 13324,1710.9C13231.6,1764.2 13224.4,1833.1 13302.4,1917.5L13174.8,1991.1C13168.6,1984.3 13102.1,1900.21 13102.1,1900.21L12971.7,1955.77C12971.7,1955.77 13022.9,2040.5 13051.7,2060.7L13025.2,2076C13015.2,2081.8 13015.2,2091.2 13025.2,2096.9L13062.1,2118.3C13072.2,2124.1 13088.4,2124.1 13098.5,2118.3" style="fill:rgb(235,208,99);fill-rule:nonzero;"/></g></g><g transform="matrix(-1.0692,-0.446153,-0.446153,1.0692,2488.04,-904.634)"><g id="path44762" serif:id="path4476" transform="matrix(0.356448,0,0,-0.356448,-3755.96,2411.35)"><path d="M12921.5,1381.7C13159.7,1244.2 13546,1244.2 13784.2,1381.7C14022.5,1519.2 14022.5,1742.3 13784.2,1879.8C13546,2017.3 13159.8,2017.3 12921.5,1879.8C12683.3,1742.2 12683.3,1519.2 12921.5,1381.7" style="fill:rgb(230,137,19);fill-rule:nonzero;"/></g><g id="path44782" serif:id="path4478" transform="matrix(0.356448,0,0,-0.356448,-3755.96,2411.35)"><path d="M12921.5,1847.8C13159.8,1985.3 13546,1985.3 13784.2,1847.8C13896.3,1783.1 13955.6,1699.5 13962.2,1614.8C13955.6,1530 13896.3,1446.4 13784.2,1381.7C13546,1244.2 13159.7,1244.2 12921.5,1381.7C12809.5,1446.4 12750.1,1530 12743.5,1614.7C12750.1,1699.5 12809.5,1783.1 12921.5,1847.8" style="fill:rgb(255,158,35);fill-rule:nonzero;"/></g><g id="path44802" serif:id="path4480" transform="matrix(0.356448,0,0,-0.356448,-3755.96,2411.35)"><path d="M13507.8,1476.3L13393.1,1542.5C13352.1,1492.3 13433.8,1450.7 13507.8,1476.3ZM13201.2,1737.4L13309.7,1674.7C13344.3,1716.6 13278.4,1759.2 13201.2,1737.4ZM13055.5,1820.5L13081.1,1805.7C13301.2,1921.2 13614.5,1768.5 13439.9,1599.6L13588.1,1514C13608.4,1531.5 13622.6,1550.4 13630.6,1570.8C13640.7,1596.2 13681.2,1613.6 13726.2,1610.7C13769.5,1607.9 13801.8,1601.2 13804.5,1577.7C13805.1,1572.5 13804.2,1553.5 13801.8,1548.1C13785.4,1513.1 13751.9,1476 13702.9,1447.8L13732.3,1452C13737.8,1448.8 13735.5,1426.3 13735.5,1422.2C13735.5,1418 13732.8,1413.8 13727.3,1410.7L13695.2,1392.1C13684.2,1385.8 13666.4,1385.8 13655.4,1392.1L13630.1,1406.7C13505.2,1356.6 13378.8,1356.7 13281,1413.1C13188.7,1466.4 13181.5,1535.3 13259.4,1619.7L13131.9,1693.3C13125.7,1686.5 13120.3,1678.1 13116,1668C13105.1,1642.9 13063.6,1626.3 13019.1,1629.2C12961.6,1632.8 12922.8,1669.5 12942.4,1700.9C12956.8,1724.1 12979.9,1742.8 13008.8,1762.9L12982.3,1778.2C12977.1,1781.2 12974.6,1785.1 12974.8,1789C12974.9,1792.7 12971.9,1815.8 12976.8,1818.6L13019.2,1820.5C13029.2,1826.3 13045.5,1826.3 13055.5,1820.5" style="fill:rgb(230,137,19);fill-rule:nonzero;"/></g><g id="path44822" serif:id="path4482" transform="matrix(0.356448,0,0,-0.356448,-3755.96,2411.35)"><path d="M13507.8,1500.3L13393.1,1566.5C13352.1,1516.3 13433.8,1474.7 13507.8,1500.3ZM13201.2,1761.4L13309.7,1698.7C13344.3,1740.6 13278.4,1783.2 13201.2,1761.4ZM13055.5,1844.5L13081.1,1829.7C13301.2,1945.2 13614.5,1792.5 13439.9,1623.6L13588.1,1538C13608.4,1555.5 13622.6,1574.4 13630.6,1594.8C13640.7,1620.2 13681.2,1637.7 13726.2,1634.8C13779,1631.3 13815.5,1601.8 13801.8,1572.1C13785.4,1537.1 13751.9,1500 13702.9,1471.8L13727.3,1457.7C13738.3,1451.3 13738.3,1441 13727.3,1434.7L13695.2,1416.1C13684.2,1409.8 13666.4,1409.8 13655.4,1416.1L13630.1,1430.7C13505.2,1380.6 13378.8,1380.7 13281,1437.1C13188.7,1490.4 13181.5,1559.3 13259.4,1643.7L13131.9,1717.3C13125.7,1710.5 13120.3,1702.1 13116,1692C13105.1,1666.9 13063.6,1650.4 13019.1,1653.2C12961.6,1656.8 12924.3,1690.5 12943.9,1722C12958.3,1745.1 12979.9,1766.8 13008.8,1786.9L12982.3,1802.2C12972.2,1808 12972.2,1817.4 12982.3,1823.2L13019.2,1844.5C13029.2,1850.3 13045.5,1850.3 13055.5,1844.5" style="fill:rgb(255,180,63);fill-rule:nonzero;"/></g><g id="path44842" serif:id="path4484" transform="matrix(0.356448,0,0,-0.356448,-3755.96,2411.35)"><path d="M12848.7,1390.2C13150.9,1215.7 13640.7,1215.7 13942.9,1390.2C14085,1472.2 14160.2,1578.2 14168.7,1685.6C14169.2,1692.1 14169.5,1897 14169.5,1903.5C14170,2018.1 14094.5,1934.4 13942.9,2021.9C13640.8,2196.3 13150.9,2196.3 12848.7,2021.9C12698.6,1935.2 12623.1,2020.2 12622.1,1906.6C12622.1,1900.3 12622.3,1695.5 12622.7,1689.1C12629.7,1580.5 12705.1,1473.1 12848.7,1390.2" style="fill:rgb(203,137,39);fill-rule:nonzero;"/></g><g id="g44862" serif:id="g4486" transform="matrix(0.356448,0,0,-0.356448,-3755.96,2411.35)"><g id="g44882" serif:id="g4488"><clipPath id="_clip5"><path d="M12848.7,1390.2C13150.9,1215.7 13640.7,1215.7 13942.9,1390.2C14085,1472.2 14160.2,1578.2 14168.7,1685.6C14169.2,1692 14169.5,1897 14169.5,1903.5C14170,2018.1 14094.4,1934.4 13942.9,2021.9C13640.8,2196.4 13150.9,2196.3 12848.7,2021.9C12698.6,1935.2 12623.1,2020.2 12622.1,1906.6C12622.1,1900.3 12622.3,1695.5 12622.7,1689.1C12629.7,1580.5 12705.1,1473.1 12848.7,1390.2"/></clipPath><g clip-path="url(#_clip5)"><path id="path44942" serif:id="path4494" d="M14167.7,1555.6C14174.7,1555.6 14180.5,1561.3 14180.5,1568.4L14180.5,1941.9C14180.5,1948.9 14174.7,1954.7 14167.7,1954.7C14160.6,1954.7 14154.9,1948.9 14154.9,1941.9L14154.9,1568.4C14154.9,1561.3 14160.6,1555.6 14167.7,1555.6" style="fill:rgb(178,120,34);fill-rule:nonzero;"/><path id="path44962" serif:id="path4496" d="M14112.3,1903.4L14112.3,1530C14112.3,1523.3 14117.5,1517.8 14124.1,1517.2L14125.3,1517.2C14132.4,1517.2 14138.2,1523 14138.2,1530L14138.2,1903.4C14138.2,1910.5 14132.4,1916.3 14125.3,1916.3L14124.1,1916.2C14117.5,1915.6 14112.3,1910.1 14112.3,1903.4" style="fill:rgb(178,120,34);fill-rule:nonzero;"/><path id="path44982" serif:id="path4498" d="M14069.7,1864.9L14069.7,1491.7C14069.7,1484.9 14075.1,1479.3 14081.8,1478.8L14083,1478.7C14090.1,1478.7 14096,1484.6 14096,1491.7L14096,1864.9C14096,1872 14090.1,1877.9 14083,1877.9L14081.8,1877.8C14075.1,1877.3 14069.7,1871.7 14069.7,1864.9" style="fill:rgb(178,120,34);fill-rule:nonzero;"/><path id="path45002" serif:id="path4500" d="M14027.1,1826.4L14027.1,1453.4C14027.1,1446.5 14032.6,1440.9 14039.4,1440.4L14040.7,1440.3C14047.8,1440.3 14053.7,1446.2 14053.7,1453.4L14053.7,1826.4C14053.7,1833.6 14047.8,1839.4 14040.7,1839.4L14039.4,1839.4C14032.6,1838.9 14027.1,1833.3 14027.1,1826.4" style="fill:rgb(178,120,34);fill-rule:nonzero;"/><path id="path45382" serif:id="path4538" d="M13060.9,1233.8L13062.3,1233.8C13069.8,1233.8 13075.8,1239.9 13075.8,1247.3L13075.8,1619.4C13075.8,1626.9 13069.8,1632.9 13062.3,1632.9L13060.9,1632.9C13053.4,1632.9 13047.4,1626.9 13047.4,1619.4L13047.4,1247.3C13047.4,1239.9 13053.4,1233.8 13060.9,1233.8" style="fill:rgb(178,120,34);fill-rule:nonzero;"/><path id="path45402" serif:id="path4540" d="M13005.7,1242.1L13007.1,1242.1C13014.5,1242.1 13020.5,1248.2 13020.5,1255.6L13020.5,1627.7C13020.5,1635.2 13014.5,1641.2 13007.1,1641.2L13005.7,1641.2C12998.3,1641.2 12992.2,1635.2 12992.2,1627.7L12992.2,1255.6C12992.2,1248.2 12998.3,1242.1 13005.7,1242.1" style="fill:rgb(178,120,34);fill-rule:nonzero;"/><path id="path45442" serif:id="path4544" d="M12897.7,1671.6L12897.7,1299.2C12897.7,1291.9 12903.7,1286.3 12910.9,1285.9L12912.2,1285.9C12919.6,1285.9 12925.6,1291.9 12925.6,1299.2L12925.6,1671.6C12925.6,1679 12919.6,1685 12912.2,1685L12910.9,1685C12903.7,1684.6 12897.7,1678.9 12897.7,1671.6" style="fill:rgb(178,120,34);fill-rule:nonzero;"/><path id="path45462" serif:id="path4546" d="M12858.4,1707.2L12858.4,1334.6C12858.4,1327.4 12864.2,1321.8 12871.4,1321.4L12872.7,1321.3C12880,1321.3 12886,1327.3 12886,1334.6L12886,1707.2C12886,1714.5 12880,1720.4 12872.7,1720.4L12871.4,1720.4C12864.2,1720 12858.4,1714.4 12858.4,1707.2" style="fill:rgb(178,120,34);fill-rule:nonzero;"/><path id="path45502" serif:id="path4550" d="M12779.8,1778.3L12779.8,1405.4C12779.8,1398.4 12785.4,1392.8 12792.3,1392.3L12793.6,1392.3C12800.8,1392.3 12806.7,1398.2 12806.7,1405.4L12806.7,1778.3C12806.7,1785.5 12800.8,1791.4 12793.6,1791.4L12792.3,1791.4C12785.4,1790.9 12779.8,1785.3 12779.8,1778.3" style="fill:rgb(178,120,34);fill-rule:nonzero;"/><path id="path45522" serif:id="path4552" d="M12740.5,1813.9L12740.5,1440.8C12740.5,1433.9 12745.9,1428.3 12752.7,1427.8L12754,1427.8C12761.2,1427.8 12767,1433.7 12767,1440.8L12767,1813.9C12767,1821 12761.2,1826.9 12754,1826.9L12752.7,1826.9C12745.9,1826.3 12740.5,1820.8 12740.5,1813.9" style="fill:rgb(178,120,34);fill-rule:nonzero;"/><path id="path45582" serif:id="path4558" d="M12635.3,1534.2C12642.3,1534.2 12648.1,1540 12648.1,1547L12648.1,1920.5C12648.1,1927.6 12642.3,1933.3 12635.3,1933.3C12628.2,1933.3 12622.5,1927.6 12622.5,1920.5L12622.5,1547C12622.5,1540 12628.2,1534.2 12635.3,1534.2" style="fill:rgb(178,120,34);fill-rule:nonzero;"/></g></g></g><g id="path45602" serif:id="path4560" transform="matrix(0.356448,0,0,-0.356448,-3755.96,2411.35)"><path d="M12848.7,1588.7C13150.9,1414.2 13640.7,1414.2 13942.9,1588.7C14245.1,1763.1 14245.1,2045.9 13942.9,2220.4C13640.8,2394.8 13150.9,2394.8 12848.7,2220.4C12546.6,2045.9 12546.6,1763.1 12848.7,1588.7" style="fill:rgb(223,168,87);fill-rule:nonzero;"/></g><g id="path45622" serif:id="path4562" transform="matrix(0.356448,0,0,-0.356448,-3755.96,2411.35)"><path d="M12875,1603.8C13162.6,1437.8 13629,1437.8 13916.6,1603.8C14204.2,1769.9 14204.2,2039.1 13916.6,2205.2C13629,2371.3 13162.7,2371.2 12875,2205.2C12587.4,2039.1 12587.4,1769.9 12875,1603.8" style="fill:rgb(235,208,99);fill-rule:nonzero;"/></g><g id="path45642" serif:id="path4564" transform="matrix(0.356448,0,0,-0.356448,-3755.96,2411.35)"><path d="M12964.5,1655.5C13202.7,1517.9 13588.9,1517.9 13827.2,1655.5C14065.4,1793 14065.4,2016 13827.2,2153.6C13589,2291.1 13202.7,2291.1 12964.5,2153.6C12726.2,2016 12726.2,1793 12964.5,1655.5" style="fill:rgb(207,140,86);fill-rule:nonzero;"/></g><g id="path45662" serif:id="path4566" transform="matrix(0.356448,0,0,-0.356448,-3755.96,2411.35)"><path d="M12964.5,2121.5C13202.7,2259.1 13589,2259.1 13827.2,2121.6C13939.2,2056.9 13998.6,1973.3 14005.2,1888.5C13998.6,1803.8 13939.2,1720.2 13827.2,1655.5C13588.9,1517.9 13202.7,1517.9 12964.5,1655.5C12852.4,1720.2 12793.1,1803.8 12786.4,1888.5C12793.1,1973.2 12852.4,2056.8 12964.5,2121.5" style="fill:rgb(211,167,93);fill-rule:nonzero;"/></g><g id="path45682" serif:id="path4568" transform="matrix(0.356448,0,0,-0.356448,-3755.96,2411.35)"><path d="M13550.8,1750L13436.1,1816.3C13395.1,1766.1 13476.7,1724.5 13550.8,1750ZM13244.1,2011.2L13352.7,1948.5C13387.2,1990.4 13321.4,2032.9 13244.1,2011.2ZM13098.5,2094.2L13124.1,2079.5C13344.2,2195 13657.4,2042.3 13482.8,1873.4L13631.1,1787.8C13651.4,1805.2 13665.5,1824.2 13673.6,1844.5C13681.9,1865.64 13823.1,1851.38 13823.1,1851.38L13827.4,1816.38C13827.4,1816.38 13794.8,1749.8 13745.8,1721.5L13775.2,1725.8C13780.7,1722.6 13778.5,1700.1 13778.5,1695.9C13778.5,1691.8 13775.7,1687.6 13770.2,1684.4L13738.1,1665.9C13727.1,1659.6 13709.3,1659.6 13698.3,1665.9L13673,1680.5C13548.1,1630.4 13421.7,1630.4 13324,1686.9C13231.6,1740.2 13224.4,1809.1 13302.4,1893.5L13174.8,1967.1C13168.6,1960.3 13102.8,1875.38 13102.8,1875.38L12972.1,1932.28L12973.4,1957.09C12973.4,1957.09 13030.5,2021.83 13051.7,2036.7L13025.2,2052C13020,2055 13017.5,2058.9 13017.7,2062.8C13017.9,2066.5 13014.9,2089.5 13019.7,2092.3L13062.1,2094.2C13072.2,2100 13088.4,2100 13098.5,2094.2" style="fill:rgb(207,140,86);fill-rule:nonzero;"/></g><g id="path45702" serif:id="path4570" transform="matrix(0.356448,0,0,-0.356448,-3755.96,2411.35)"><path d="M13550.8,1774.1L13436.1,1840.3C13395.1,1790.1 13476.7,1748.5 13550.8,1774.1ZM13244.1,2035.2L13352.7,1972.5C13387.2,2014.4 13321.4,2056.9 13244.1,2035.2ZM13098.5,2118.3L13124.1,2103.5C13344.2,2219 13657.4,2066.3 13482.8,1897.4L13631.1,1811.8C13676.6,1847.55 13690.7,1886.31 13690.7,1886.31L13823.9,1852.13C13823.9,1852.13 13794.8,1773.8 13745.8,1745.5L13770.2,1731.4C13781.2,1725.1 13781.2,1714.8 13770.2,1708.4L13738.1,1689.9C13727.1,1683.6 13709.3,1683.6 13698.3,1689.9L13673,1704.5C13548.1,1654.4 13421.7,1654.5 13324,1710.9C13231.6,1764.2 13224.4,1833.1 13302.4,1917.5L13174.8,1991.1C13168.6,1984.3 13102.1,1900.21 13102.1,1900.21L12971.7,1955.77C12971.7,1955.77 13022.9,2040.5 13051.7,2060.7L13025.2,2076C13015.2,2081.8 13015.2,2091.2 13025.2,2096.9L13062.1,2118.3C13072.2,2124.1 13088.4,2124.1 13098.5,2118.3" style="fill:rgb(235,208,99);fill-rule:nonzero;"/></g></g><g transform="matrix(3.14281,0,0,3.14281,-7540.08,-3918.92)"><g id="path2608" transform="matrix(0.293419,0,0,0.293419,2452.98,1314.07)"><path d="M1417.02,985.678C1417.23,979.233 1417.46,975.617 1417.72,975.464L2144.57,1005.57L3750.96,1939.65L3055.82,2342.43L1417.72,1396.84C1417.26,1396.57 1416.88,1385.37 1416.57,1366.77C1424.52,1365.63 1421.06,1362.55 1416.46,1359.42C1416.41,1356.14 1416.37,1352.68 1416.32,1349.05C1419.9,1348.73 1423.51,1348.74 1424.46,1347.19C1424.63,1346.89 1423.31,1345.71 1423.17,1345.58C1420.97,1343.49 1418.63,1341.48 1416.22,1339.56C1416.18,1336.13 1416.15,1332.57 1416.12,1328.91C1417.21,1329.07 1418.14,1329.26 1418.75,1329.45C1420.68,1330.06 1426.31,1331.21 1424.81,1329.85C1422.14,1327.45 1419.11,1325.92 1416.08,1324.24C1416.06,1322.11 1416.05,1319.95 1416.03,1317.77C1419.42,1317.23 1423.39,1317.33 1425.42,1317.07C1427.26,1316.84 1432.64,1316.12 1430.82,1315.77C1425.99,1314.83 1420.98,1315.14 1416.01,1315.7C1415.98,1311.51 1415.95,1307.21 1415.93,1302.82C1416.4,1302.4 1416.79,1301.96 1417.08,1301.49C1417.87,1300.2 1417.21,1298.8 1415.89,1297.37C1415.87,1292.37 1415.84,1287.26 1415.81,1282.07C1420.42,1281.24 1425.17,1280.51 1426.38,1276.57C1427.29,1273.62 1421.4,1272.58 1415.76,1270.62C1415.68,1250.39 1415.63,1228.91 1415.61,1207.13C1417.65,1206.89 1419.61,1206.74 1421.29,1206.56C1421.5,1206.53 1424.15,1206.64 1424.19,1206.45C1424.66,1204.37 1419.97,1205.5 1418.11,1204.45C1417.25,1203.97 1416.42,1203.48 1415.61,1203.01L1415.61,1195.99L1415.61,1193.36C1416.33,1193.33 1416.99,1193.32 1417.56,1193.32C1420.11,1193.32 1423.68,1193.86 1426.2,1193.02C1426.43,1192.95 1427.06,1192.93 1426.88,1192.76C1424.2,1190.12 1419.9,1187.69 1415.6,1185.12C1415.61,1150.59 1415.68,1116.08 1415.84,1085.33C1419.34,1084.36 1422.48,1083.2 1423.75,1080.79C1423.87,1080.55 1422.42,1079.52 1422.25,1079.39C1420.74,1078.36 1418.37,1077.23 1415.89,1076.19C1415.92,1069.72 1415.96,1063.44 1416.01,1057.38C1416.79,1056.22 1417.64,1055.1 1418.62,1054.06C1419.74,1052.86 1425.08,1051.16 1425.2,1049.22C1425.31,1047.41 1420.85,1045.32 1416.12,1043.34C1416.19,1034.65 1416.28,1026.58 1416.37,1019.25C1418.4,1017.8 1423.8,1017.6 1425.44,1016.18C1428.09,1013.9 1422.03,1010.89 1416.52,1008.74L1416.56,1006.23C1416.57,1005.34 1416.59,1004.46 1416.6,1003.57L1416.62,1002.85C1419.2,1002.2 1421.78,1001.68 1424.59,1001.47C1424.91,1001.45 1426.32,1001.42 1426.47,1001C1426.79,1000.09 1425.19,999.547 1424.62,998.76C1421.55,994.495 1418.87,990.58 1417.02,985.678Z" style="fill:rgb(5,131,124);fill-rule:nonzero;"/></g><g id="path26081" serif:id="path2608" transform="matrix(0.293419,0,0,0.293419,2452.98,1314.07)"><path d="M1417.02,985.678C1417.23,979.233 1417.46,975.617 1417.72,975.464L2144.57,1005.57L3750.96,1939.65L3055.82,2342.43L1417.72,1396.84C1417.26,1396.57 1416.88,1385.37 1416.57,1366.77C1424.52,1365.63 1421.06,1362.55 1416.46,1359.42C1416.41,1356.14 1416.37,1352.68 1416.32,1349.05C1419.9,1348.73 1423.51,1348.74 1424.46,1347.19C1424.63,1346.89 1423.31,1345.71 1423.17,1345.58C1420.97,1343.49 1418.63,1341.48 1416.22,1339.56C1416.18,1336.13 1416.15,1332.57 1416.12,1328.91C1417.21,1329.07 1418.14,1329.26 1418.75,1329.45C1420.68,1330.06 1426.31,1331.21 1424.81,1329.85C1422.14,1327.45 1419.11,1325.92 1416.08,1324.24C1416.06,1322.11 1416.05,1319.95 1416.03,1317.77C1419.42,1317.23 1423.39,1317.33 1425.42,1317.07C1427.26,1316.84 1432.64,1316.12 1430.82,1315.77C1425.99,1314.83 1420.98,1315.14 1416.01,1315.7C1415.98,1311.51 1415.95,1307.21 1415.93,1302.82C1416.4,1302.4 1416.79,1301.96 1417.08,1301.49C1417.87,1300.2 1417.21,1298.8 1415.89,1297.37C1415.87,1292.37 1415.84,1287.26 1415.81,1282.07C1420.42,1281.24 1425.17,1280.51 1426.38,1276.57C1427.29,1273.62 1421.4,1272.58 1415.76,1270.62C1415.68,1250.39 1415.63,1228.91 1415.61,1207.13C1417.65,1206.89 1419.61,1206.74 1421.29,1206.56C1421.5,1206.53 1424.15,1206.64 1424.19,1206.45C1424.66,1204.37 1419.97,1205.5 1418.11,1204.45C1417.25,1203.97 1416.42,1203.48 1415.61,1203.01L1415.61,1195.99L1415.61,1193.36C1416.33,1193.33 1416.99,1193.32 1417.56,1193.32C1420.11,1193.32 1423.68,1193.86 1426.2,1193.02C1426.43,1192.95 1427.06,1192.93 1426.88,1192.76C1424.2,1190.12 1419.9,1187.69 1415.6,1185.12C1415.61,1150.59 1415.68,1116.08 1415.84,1085.33C1419.34,1084.36 1422.48,1083.2 1423.75,1080.79C1423.87,1080.55 1422.42,1079.52 1422.25,1079.39C1420.74,1078.36 1418.37,1077.23 1415.89,1076.19C1415.92,1069.72 1415.96,1063.44 1416.01,1057.38C1416.79,1056.22 1417.64,1055.1 1418.62,1054.06C1419.74,1052.86 1425.08,1051.16 1425.2,1049.22C1425.31,1047.41 1420.85,1045.32 1416.12,1043.34C1416.19,1034.65 1416.28,1026.58 1416.37,1019.25C1418.4,1017.8 1423.8,1017.6 1425.44,1016.18C1428.09,1013.9 1422.03,1010.89 1416.52,1008.74L1416.56,1006.23C1416.57,1005.34 1416.59,1004.46 1416.6,1003.57L1416.62,1002.85C1419.2,1002.2 1421.78,1001.68 1424.59,1001.47C1424.91,1001.45 1426.32,1001.42 1426.47,1001C1426.79,1000.09 1425.19,999.547 1424.62,998.76C1421.55,994.495 1418.87,990.58 1417.02,985.678Z" style="fill:url(#_Linear6);fill-rule:nonzero;"/></g><g id="path2612" transform="matrix(0.217989,0,0,-0.217989,0,2666.67)"><path d="M15363.9,3610.45L13163.7,4880.73C13158.1,4883.97 13158.1,4892.1 13163.7,4895.35L14087.2,5428.52L16300,4150.97L15363.9,3610.45" style="fill:rgb(155,230,225);fill-rule:nonzero;"/></g><g id="path2616" transform="matrix(0.216599,0,0,-0.216599,0,2666.67)"><path d="M15473.4,3694.08L13340.1,4925.73L14166.7,5402.99L16300,4171.34L15473.4,3694.08" style="fill:rgb(68,174,158);fill-rule:nonzero;"/></g><g transform="matrix(0.217113,0.108612,-0.108612,0.217113,2671.91,1196.48)"><ellipse cx="1826.22" cy="1016.4" rx="131.114" ry="45.758" style="fill:rgb(155,230,225);"/></g><g transform="matrix(0.217113,0.108612,-0.108612,0.217113,3031.27,1402.75)"><ellipse cx="1826.22" cy="1016.4" rx="131.114" ry="45.758" style="fill:rgb(155,230,225);"/></g><g id="path2620" transform="matrix(0.213007,0,0,-0.213007,0,2666.67)"><path d="M16009.9,4328.69C15934.7,4372.19 15899.9,4430.34 15904.9,4487.55L14790,5131.29C14685.5,5125.4 14577.2,5145.44 14497.6,5191.38L14257.3,5330.15L13844.4,5091.79L14084.8,4953.01C14162.2,4908.32 14196.9,4847.98 14189.4,4789.2L15312.5,4140.77C15408.8,4142.27 15505.9,4122.12 15579,4079.93L15869.1,3912.42L16300,4161.24L16009.9,4328.69" style="fill:rgb(155,230,225);fill-rule:nonzero;"/></g><g id="path2624" transform="matrix(0.203613,0,0,-0.203613,0,2666.67)"><path d="M16070.2,4662.57C15867.8,4545.75 15567.2,4529.83 15398.8,4627.08C15230.5,4724.32 15258,4897.85 15460.3,5014.68C15662.6,5131.5 15963.2,5147.34 16131.6,5050.17C16300,4952.92 16272.5,4779.39 16070.2,4662.57" style="fill:rgb(68,174,158);fill-rule:nonzero;"/></g><g id="path2628" transform="matrix(0.242732,0,0,-0.242732,-834.358,2943.49)"><path d="M16216.6,5449.84C16133.2,5401.65 15997.9,5401.65 15914.5,5449.84C15831,5498.03 15831,5576.07 15914.5,5624.27C15997.9,5672.39 16133.2,5672.39 16216.6,5624.27C16300,5576.07 16300,5498.03 16216.6,5449.84" style="fill:rgb(68,174,158);fill-rule:nonzero;"/></g><g transform="matrix(0.0848161,0.0389886,-0.0778199,0.0465281,3082.12,1476.19)"><path d="M1285.23,1254.28C1295.69,1256.47 1305.78,1259.58 1315.5,1263.61C1336.75,1272.43 1354.99,1284.86 1370.23,1300.9C1385.47,1316.94 1397.5,1335.99 1406.32,1358.04C1415.14,1380.1 1419.55,1403.55 1419.55,1428.41L1304.07,1428.41C1303.27,1407.56 1296.65,1391.92 1284.22,1381.5C1271.79,1371.07 1257.55,1365.86 1241.51,1365.86C1222.27,1365.86 1207.43,1372.08 1197.01,1384.51C1186.58,1396.94 1181.37,1411.17 1181.37,1427.21C1181.37,1438.44 1184.17,1449.47 1189.79,1460.29C1195.4,1471.12 1209.84,1480.94 1233.09,1489.77L1305.27,1518.64C1350.98,1536.28 1382.46,1560.34 1399.7,1590.81C1416.94,1621.29 1425.57,1654.57 1425.57,1690.66C1425.57,1716.32 1420.95,1740.18 1411.73,1762.24C1402.51,1784.29 1389.88,1803.74 1373.84,1820.58C1357.8,1837.42 1338.55,1850.65 1316.1,1860.28C1306.2,1864.52 1295.91,1867.83 1285.23,1870.2L1285.23,1938.99L1200.86,1938.99L1200.86,1870.64C1169.12,1864.14 1141.37,1849.86 1117.61,1827.8C1100.77,1812.56 1087.13,1793.51 1076.71,1770.65C1066.28,1747.8 1060.67,1721.13 1059.87,1690.66L1175.35,1690.66C1177.76,1707.5 1183.57,1723.14 1192.79,1737.57C1202.02,1752.01 1218.26,1759.23 1241.51,1759.23C1259.16,1759.23 1275,1753.41 1289.03,1741.78C1303.07,1730.16 1310.08,1713.92 1310.08,1693.07C1310.08,1676.22 1305.67,1661.79 1296.85,1649.76C1288.03,1637.73 1271.99,1627.3 1248.73,1618.48L1189.79,1596.83C1151.29,1582.39 1121.02,1560.94 1098.96,1532.47C1076.91,1504 1065.88,1469.32 1065.88,1428.41C1065.88,1402.75 1070.69,1378.89 1080.32,1356.84C1089.94,1334.78 1103.17,1315.74 1120.02,1299.7C1136.06,1283.66 1154.9,1271.43 1176.56,1263.01C1184.44,1259.94 1192.55,1257.43 1200.86,1255.48L1200.86,1169.48L1285.23,1169.48L1285.23,1254.28Z" style="fill:rgb(155,230,225);fill-rule:nonzero;"/></g><g id="path26281" serif:id="path2628" transform="matrix(0.242732,0,0,-0.242732,-562.756,3094.5)"><path d="M16216.6,5449.84C16133.2,5401.65 15997.9,5401.65 15914.5,5449.84C15831,5498.03 15831,5576.07 15914.5,5624.27C15997.9,5672.39 16133.2,5672.39 16216.6,5624.27C16300,5576.07 16300,5498.03 16216.6,5449.84" style="fill:rgb(68,174,158);fill-rule:nonzero;"/></g><g transform="matrix(0.0848161,0.0389886,-0.0778199,0.0465281,3353.72,1627.2)"><path d="M1285.23,1254.28C1295.69,1256.47 1305.78,1259.58 1315.5,1263.61C1336.75,1272.43 1354.99,1284.86 1370.23,1300.9C1385.47,1316.94 1397.5,1335.99 1406.32,1358.04C1415.14,1380.1 1419.55,1403.55 1419.55,1428.41L1304.07,1428.41C1303.27,1407.56 1296.65,1391.92 1284.22,1381.5C1271.79,1371.07 1257.55,1365.86 1241.51,1365.86C1222.27,1365.86 1207.43,1372.08 1197.01,1384.51C1186.58,1396.94 1181.37,1411.17 1181.37,1427.21C1181.37,1438.44 1184.17,1449.47 1189.79,1460.29C1195.4,1471.12 1209.84,1480.94 1233.09,1489.77L1305.27,1518.64C1350.98,1536.28 1382.46,1560.34 1399.7,1590.81C1416.94,1621.29 1425.57,1654.57 1425.57,1690.66C1425.57,1716.32 1420.95,1740.18 1411.73,1762.24C1402.51,1784.29 1389.88,1803.74 1373.84,1820.58C1357.8,1837.42 1338.55,1850.65 1316.1,1860.28C1306.2,1864.52 1295.91,1867.83 1285.23,1870.2L1285.23,1938.99L1200.86,1938.99L1200.86,1870.64C1169.12,1864.14 1141.37,1849.86 1117.61,1827.8C1100.77,1812.56 1087.13,1793.51 1076.71,1770.65C1066.28,1747.8 1060.67,1721.13 1059.87,1690.66L1175.35,1690.66C1177.76,1707.5 1183.57,1723.14 1192.79,1737.57C1202.02,1752.01 1218.26,1759.23 1241.51,1759.23C1259.16,1759.23 1275,1753.41 1289.03,1741.78C1303.07,1730.16 1310.08,1713.92 1310.08,1693.07C1310.08,1676.22 1305.67,1661.79 1296.85,1649.76C1288.03,1637.73 1271.99,1627.3 1248.73,1618.48L1189.79,1596.83C1151.29,1582.39 1121.02,1560.94 1098.96,1532.47C1076.91,1504 1065.88,1469.32 1065.88,1428.41C1065.88,1402.75 1070.69,1378.89 1080.32,1356.84C1089.94,1334.78 1103.17,1315.74 1120.02,1299.7C1136.06,1283.66 1154.9,1271.43 1176.56,1263.01C1184.44,1259.94 1192.55,1257.43 1200.86,1255.48L1200.86,1169.48L1285.23,1169.48L1285.23,1254.28Z" style="fill:rgb(155,230,225);fill-rule:nonzero;"/></g><g id="path2636" transform="matrix(0.217989,0,0,-0.217989,0,2666.67)"><path d="M15363.9,3610.45L16300,4150.97L16300,3590.15L15363.9,3049.63L15363.9,3610.45" style="fill:rgb(6,153,145);fill-rule:nonzero;"/></g><g id="path26361" serif:id="path2636" transform="matrix(0.217989,0,0,-0.217989,0,2666.67)"><path d="M15363.9,3610.45L16300,4150.97L16300,3590.15L15363.9,3049.63L15363.9,3610.45" style="fill:url(#_Linear7);fill-rule:nonzero;"/></g><g id="path2640" transform="matrix(0.203612,0,0,-0.203612,0,2666.67)"><path d="M14785.9,4825.45L15296.1,4530.83L16300,5109.97L15789.7,5404.98L14785.9,4825.45" style="fill:rgb(242,255,227);fill-rule:nonzero;"/></g><g id="path2644" transform="matrix(0.198128,0,0,-0.198128,0,2666.67)"><path d="M15194.9,4959.21L15267.6,4916.47L16300,5512.38L16227.3,5555.12L15194.9,4959.21" style="fill:rgb(235,208,99);fill-rule:nonzero;"/></g><g id="path2648" transform="matrix(0.203612,0,0,-0.203612,0,2666.67)"><path d="M15225.4,4570.98L15297.7,4529.98L16300,5110.17L16230.1,5150.05L15225.4,4570.98" style="fill:rgb(235,208,99);fill-rule:nonzero;"/></g><g id="path2652" transform="matrix(0.191097,0,0,-0.191097,0,2666.67)"><path d="M15754,5141.68L15754,4500.54L16300,4182.66L16298,4827.64L15754,5141.68" style="fill:rgb(207,202,193);fill-rule:nonzero;"/></g><g id="path2656" transform="matrix(0.185601,0,0,-0.185601,0,2666.67)"><path d="M16220.5,5293.94L16220.5,4633.82L16300,4584.1L16299,5249.26L16220.5,5293.94" style="fill:rgb(211,167,93);fill-rule:nonzero;"/></g><g id="path2660" transform="matrix(0.191097,0,0,-0.191097,0,2666.67)"><path d="M16223.6,4871.11L16222.8,4228.92L16300,4180.64L16299.7,4826.8L16223.6,4871.11" style="fill:rgb(211,167,93);fill-rule:nonzero;"/></g><g id="path2664" transform="matrix(0.211715,0,0,-0.211715,0,2666.67)"><path d="M14932.6,3988.26L15817.7,3491.37L15812.2,3491.43L15872.8,3524.94L15933.5,3558.19L16055.1,3624.06C16095.6,3646.1 16136.4,3667.77 16177.1,3689.5C16217.7,3711.29 16258.7,3732.51 16299.5,3754.05L16300,3753.1C16260,3730.12 16220.2,3706.81 16180,3684.14C16139.9,3661.34 16099.9,3638.55 16059.5,3616.06L15938.8,3548.55L15878.2,3515.05L15817.6,3481.8L15814.8,3480.28L15812.2,3481.86L14932.1,3987.32L14932.6,3988.26" style="fill:rgb(4,92,88);fill-rule:nonzero;"/></g><g transform="matrix(0.293419,0,0,0.293419,2441.6,1310.51)"><path d="M2337.29,1791.73L2912.87,2108.56C2912.87,2108.56 2619.97,1945.99 2578.73,1931.87C2537.5,1917.74 2337.29,1791.73 2337.29,1791.73Z" style="fill:rgb(4,92,88);"/></g><g transform="matrix(0.293419,0,0,0.293419,2441.6,1310.51)"><path d="M3092.92,2020.27L3093.62,2012.12L2912.63,1916.3L3092.92,2020.27Z" style="fill:rgb(4,92,88);"/></g><g transform="matrix(0.293419,0,0,0.293419,2441.6,1310.51)"><path d="M2294.83,1897.22L2304.58,1485.05L2294.09,1478.96L2294.83,1897.22Z" style="fill-opacity:0.29;"/></g><g transform="matrix(0.293419,0,0,0.293419,2441.6,1310.51)"><path d="M2294.09,1478.96L2304.58,1485.05L2991.69,1078.12L2988.98,1076.05L2294.09,1478.96Z" style="fill-opacity:0.29;"/></g><g id="path2668" transform="matrix(0.180295,0,0,-0.180295,0,2666.67)"><path d="M15908.6,5335.23L16300,5111.41L15908.7,5319.83L15908.6,5335.23Z" style="fill:rgb(4,97,92);fill-rule:nonzero;"/></g><g transform="matrix(0.293419,0,0,0.293419,2441.6,1310.51)"><path d="M1478.48,1230.1L1906.53,1443.42C1906.53,1443.42 1724.15,1339.15 1690.8,1323.52C1657.46,1307.89 1478.48,1230.1 1478.48,1230.1Z" style="fill:rgb(4,97,92);"/></g><g transform="matrix(0.293419,0,0,0.293419,2441.6,1310.51)"><path d="M1453.87,1099.9L1644.47,1190.36L1454.17,1089.79C1454.17,1089.79 1458.65,1093.22 1459.9,1095.22C1461.15,1097.22 1453.87,1099.9 1453.87,1099.9Z" style="fill:rgb(4,97,92);"/></g><g transform="matrix(0.293419,0,0,0.293419,2441.6,1310.51)"><path d="M1674.33,1199.62L1855.66,1282.71C1855.66,1282.71 1730.52,1237.98 1674.33,1199.62Z" style="fill:rgb(4,97,92);"/></g></g></g></g></g></g><defs><linearGradient id="_Linear2" x1="0" y1="0" x2="1" y2="0" gradientUnits="userSpaceOnUse" gradientTransform="matrix(-699.544,529.813,-529.813,-699.544,786.816,1451.01)"><stop offset="0" style="stop-color:rgb(240,154,188);stop-opacity:1"/><stop offset="1" style="stop-color:rgb(253,11,107);stop-opacity:1"/></linearGradient><linearGradient id="_Linear6" x1="0" y1="0" x2="1" y2="0" gradientUnits="userSpaceOnUse" gradientTransform="matrix(-340.564,996.545,-996.545,-340.564,2304.01,1519.26)"><stop offset="0" style="stop-color:rgb(5,131,124);stop-opacity:1"/><stop offset="1" style="stop-color:rgb(0,58,55);stop-opacity:1"/></linearGradient><linearGradient id="_Linear7" x1="0" y1="0" x2="1" y2="0" gradientUnits="userSpaceOnUse" gradientTransform="matrix(1251.23,-613.104,-613.104,-1251.23,15374.9,3938.74)"><stop offset="0" style="stop-color:rgb(6,153,145);stop-opacity:1"/><stop offset="1" style="stop-color:rgb(0,76,72);stop-opacity:1"/></linearGradient></defs></svg>