<svg id="Layer_1" data-name="Layer 1" xmlns="http://www.w3.org/2000/svg" xmlns:xlink="http://www.w3.org/1999/xlink" viewBox="0 0 4500 2500"><defs><style>.cls-1{fill:none;}.cls-2{fill:#aed3f0;}.cls-3{fill:#c3dcf3;}.cls-10,.cls-11,.cls-13,.cls-14,.cls-15,.cls-16,.cls-17,.cls-18,.cls-19,.cls-20,.cls-3,.cls-43,.cls-44,.cls-46,.cls-5,.cls-6,.cls-7,.cls-8{fill-rule:evenodd;}.cls-4{clip-path:url(#clip-path);}.cls-5{fill-opacity:0.1;}.cls-6{fill:#e8f6ff;}.cls-7,.cls-9{fill:#fff;}.cls-8{fill:#bbe3f8;}.cls-10{fill:#bae4ff;}.cls-11,.cls-12{fill-opacity:0.2;}.cls-13{fill:#f09abc;}.cls-14{fill:url(#linear-gradient);}.cls-15{fill:#ec6198;}.cls-16{fill:#c4406b;}.cls-17{fill:#e94585;}.cls-18{fill:#fadde8;}.cls-19{fill:#3f66af;}.cls-20{fill:#2d4584;}.cls-21{fill:#d9effb;}.cls-22{fill:#e68913;}.cls-23{fill:#ff9e23;}.cls-24{fill:#ffb43f;}.cls-25{fill:#cb8927;}.cls-26{clip-path:url(#clip-path-2);}.cls-27{fill:#b27822;}.cls-28{fill:#dfa857;}.cls-29{fill:#ebd063;}.cls-30{fill:#cf8c56;}.cls-31{fill:#d3a75d;}.cls-32{clip-path:url(#clip-path-3);}.cls-33{clip-path:url(#clip-path-4);}.cls-34{fill:#05837c;}.cls-35{fill:url(#linear-gradient-2);}.cls-36{fill:#9be6e1;}.cls-37{fill:#44ae9e;}.cls-38{fill:#069991;}.cls-39{fill:url(#linear-gradient-3);}.cls-40{fill:#f2ffe3;}.cls-41{fill:#cfcac1;}.cls-42,.cls-43{fill:#045c58;}.cls-44{fill-opacity:0.29;}.cls-45,.cls-46{fill:#04615c;}</style><clipPath id="clip-path"><rect class="cls-1" width="4499.99" height="2500"/></clipPath><linearGradient id="linear-gradient" x1="1290.59" y1="1789.53" x2="1291.77" y2="1789.53" gradientTransform="matrix(-869.27, 658.36, 658.36, 869.27, -55336.38, -2403141.06)" gradientUnits="userSpaceOnUse"><stop offset="0" stop-color="#f09abc"/><stop offset="1" stop-color="#fd0b6b"/></linearGradient><clipPath id="clip-path-2"><path class="cls-1" d="M3866.31,1117.93c173.86,24.53,402.36-68.08,510.45-206.89,50.83-65.24,65.94-129.07,49.66-180.94C4425.45,727,4387,631,4385.73,628c-21.37-53.73-40.86-.26-128-12.57-173.82-24.54-402.34,68.13-510.45,206.89-53.68,69-104.92,43.45-84,96.81,1.19,2.94,39.88,98.75,41.27,101.67,23.74,49.5,79.15,85.51,161.77,97.16"/></clipPath><clipPath id="clip-path-3"><path class="cls-1" d="M3331.15,479.44C3451.49,654.21,3720,781.92,3931.08,764.73c99.22-8.06,168-46.76,200.57-103.62,1.94-3.39,55.38-116.07,57.07-119.64,30.06-62.91-33.15-36.58-93.47-124.21C3975,242.52,3706.34,114.84,3495.32,132c-104.83,8.55-124.13-57.88-154.2,4.34-1.64,3.47-54.76,116.17-56.2,119.79-24.39,61.56-11,140.29,46.23,223.33"/></clipPath><clipPath id="clip-path-4"><path class="cls-1" d="M531.28,519.11C321.28,546.3,47,431.49-81.43,262.62c-60.42-79.37-77.76-156.55-57.42-218.87C-137.64,40-89.9-75.2-88.38-78.85c26.49-64.49,49.27.25,154.55-13.39C276.11-119.46,550.41-4.56,678.88,164.25c63.79,83.89,125.93,53.84,100,117.89-1.47,3.54-49.44,118.54-51.16,122-29.29,59.37-96.61,102-196.39,114.93"/></clipPath><linearGradient id="linear-gradient-2" x1="1289.75" y1="1789.34" x2="1290.94" y2="1789.34" gradientTransform="matrix(-390.25, 1141.94, 1141.94, 390.25, -1536874.6, -2169240.6)" gradientUnits="userSpaceOnUse"><stop offset="0" stop-color="#05837c"/><stop offset="1" stop-color="#003a37"/></linearGradient><linearGradient id="linear-gradient-3" x1="1289.16" y1="1790.08" x2="1290.34" y2="1790.08" gradientTransform="matrix(1065.19, 521.95, 521.95, -1065.19, -2303745.04, 1235978.24)" gradientUnits="userSpaceOnUse"><stop offset="0" stop-color="#069991"/><stop offset="1" stop-color="#004c48"/></linearGradient></defs><rect class="cls-2" x="0.01" width="4499.99" height="2500"/><path class="cls-3" d="M0,1713.22V2500H1377.61c-164-106.66-322.44-222.31-479.32-339.5-226.73-169.35-424.09-355.32-707.95-424A832.67,832.67,0,0,0,0,1713.22ZM4500,701.76V0H1011c143.64,202.49,357.7,397.84,446.62,463.72,142.57,105.64,305.54,181.66,472.76,238.38,341.44,115.81,715.75,94.25,1070.06,67C3384.8,739.53,4034.17,587.28,4500,701.76Z"/><rect class="cls-1" width="4499.99" height="2500"/><g class="cls-4"><path class="cls-5" d="M2744.64,1465.66l-608.17,15L1093.91,2299.44,2866.29,3643.33l1351.05-1061Z"/><path class="cls-6" d="M2749.23,1447.75l-608.17,15L1098.51,2281.53,2870.88,3625.42l1351.05-1061Z"/><path class="cls-7" d="M2440.86,3024.33c-12.1-9-11.74-24.41.82-34.38l940.07-746.08c12.55-10,32.58-10.75,44.68-1.74s11.75,24.41-.81,34.38l-940.06,746.08C2473,3032.56,2453,3033.34,2440.86,3024.33Z"/><path class="cls-7" d="M2720.73,3236.54c-12.1-9-11.74-24.41.83-34.38l940.06-746.09c12.55-10,32.58-10.74,44.68-1.73s11.75,24.41-.81,34.38L2765.43,3234.8C2752.87,3244.77,2732.84,3245.55,2720.73,3236.54Z"/><polygon class="cls-8" points="2638.4 1705.45 2501.01 1814.5 3102.02 2261.67 3239.42 2152.62 2638.4 1705.45"/><polygon class="cls-8" points="2622.99 2001.7 2485.59 2110.74 2901.9 2420.49 3039.3 2311.45 2622.99 2001.7"/><polygon class="cls-8" points="2574 2272.97 2436.61 2382.02 2701.79 2579.32 2839.18 2470.27 2574 2272.97"/><polygon class="cls-8" points="2202 2303.91 2064.6 2412.95 2501.67 2738.14 2639.06 2629.09 2202 2303.91"/><polygon class="cls-8" points="1809.25 2319.41 1671.86 2428.45 2301.55 2896.96 2438.95 2787.92 1809.25 2319.41"/><ellipse class="cls-9" cx="3461.36" cy="2423.14" rx="101.75" ry="77.66" transform="translate(-278.89 457.65) rotate(-7.27)"/><polygon class="cls-7" points="1399.81 2282.72 1992.51 1817.25 2024.27 1841.33 1431.57 2306.8 1399.81 2282.72"/><polygon class="cls-7" points="1474.36 2339.24 2067.06 1873.78 2098.82 1897.86 1506.11 2363.32 1474.36 2339.24"/><path class="cls-10" d="M2141.06,1462.79l319.91,262,302-275.52Z"/><path class="cls-6" d="M2141.06,1462.79l293.86,235.41L2763,1449.29Z"/><path class="cls-5" d="M3116.64,1349.81l-597.92-135.9L1360.57,1757.27,2870,3511.83l1500.85-704.14Z"/><path class="cls-6" d="M3124.14,1333.41l-597.91-135.89L1368.07,1740.87,2877.48,3495.43l1500.86-704.14Z"/><path class="cls-7" d="M2557.46,2800.48c-10.34-11.81-7.4-26.8,6.58-33.45l1045.61-497.6c14-6.65,33.7-2.45,44,9.37s7.39,26.8-6.57,33.45L2601.5,2809.85C2587.53,2816.5,2567.8,2812.3,2557.46,2800.48Z"/><polygon class="cls-8" points="2972.36 1558.25 2819.53 1630.97 3332.81 2217.58 3485.64 2144.86 2972.36 1558.25"/><polygon class="cls-8" points="2907.51 1844.45 2754.69 1917.18 3110.22 2323.51 3263.05 2250.78 2907.51 1844.45"/><polygon class="cls-8" points="2813.99 2097.89 2661.17 2170.62 2887.64 2429.44 3040.46 2356.71 2813.99 2097.89"/><polygon class="cls-8" points="2444.61 2036.05 2291.79 2108.78 2665.05 2535.37 2817.87 2462.64 2444.61 2036.05"/><polygon class="cls-8" points="2400.1 2345.5 2247.28 2418.22 2442.46 2641.29 2595.28 2568.57 2400.1 2345.5"/><ellipse class="cls-9" cx="3657.48" cy="2464.65" rx="77.34" ry="102.18" transform="translate(421.87 5461.73) rotate(-76.78)"/><ellipse class="cls-9" cx="3434.81" cy="2570.61" rx="77.34" ry="102.18" transform="translate(146.96 5326.71) rotate(-76.78)"/><polygon class="cls-7" points="1662.84 1816.65 2321.26 1507.75 2348.31 1539.18 1689.89 1848.09 1662.84 1816.65"/><polygon class="cls-7" points="1726.33 1890.45 2384.75 1581.54 2411.8 1612.98 1753.37 1921.89 1726.33 1890.45"/><path class="cls-10" d="M2526.23,1197.52l269.18,335.74,341.93-194.94Z"/><path class="cls-6" d="M2526.23,1197.52l248.14,303.23,363-162.43Z"/><path class="cls-11" d="M1589.74,1555.48l-16.31,134.69L3056,2919.45,4084.38,2484Z"/><ellipse class="cls-12" cx="4215.51" cy="1129.58" rx="377.71" ry="105.22"/><ellipse class="cls-12" cx="237.69" cy="500.47" rx="411.09" ry="74.83"/><path class="cls-13" d="M-204.82,1663.46l849-387.55a105.36,105.36,0,0,1,85-1.12c27.23,11.57,171.79,98.8,180.87,112.88,63.2,98-24.18,225.85,9.17,319.67a188.48,188.48,0,0,0,91.51,104.58l1235.16,633.36L-180.32,2438Z"/><path class="cls-14" d="M-204.82,1663.46l849-387.55a105.36,105.36,0,0,1,85-1.12c27.23,11.57,171.79,98.8,180.87,112.88,63.2,98-24.18,225.85,9.17,319.67a188.48,188.48,0,0,0,91.51,104.58l1235.16,633.36L-180.32,2438Z"/><path class="cls-15" d="M-53.4,1755.6l849-387.54a105.54,105.54,0,0,1,143.26,60.87c39.1,110,98.39,276.73,131.74,370.55a188.48,188.48,0,0,0,91.51,104.58l1235.16,633.37L-28.9,2530.19Z"/><path class="cls-16" d="M764.62,1425.55c-1.35-2.88-5.52-3.75-9.31-2l-160.47,75.86c-3.79,1.79-5.77,5.58-4.42,8.45l4.89,10.41c1.35,2.88,5.52,3.75,9.3,2l160.48-75.86c3.79-1.79,5.77-5.58,4.42-8.45Z"/><path class="cls-17" d="M-55.3,2425.86l1122.66-541.53,6.59,35.27-1134.33,561Z"/><path class="cls-16" d="M1169.25,2069c-25.39-14.15-63.5-16.18-85-4.51L920.75,2153c-5.53,3-17.57-23.5-19.9-19.56-1.75,3,5.55,36.29,5.59,39.55.11,9.22,7.34,19,21.28,26.82l92,51.3c25.39,14.15,63.5,16.18,85,4.5l163.47-88.58c12.66-6.86,10.75-53.8,6.85-63.82-2.75-7-3.38,22.85-13.84,17Z"/><path class="cls-13" d="M1162.91,2031.75c-25.39-14.15-63.5-16.18-85-4.51L914.4,2115.82c-21.55,11.68-18.41,32.65,7,46.81l92,51.3c25.39,14.16,63.5,16.18,85.05,4.5l163.46-88.58c21.54-11.67,18.41-32.64-7-46.79Z"/><path class="cls-16" d="M755.74,2281.1c-25.39-14.15-63.5-16.17-85-4.5l-163.47,88.58c-5.52,3-17.57-23.51-19.89-19.57-1.76,3,5.55,36.3,5.58,39.55.12,9.22,7.35,19.05,21.29,26.82l92,51.3c25.39,14.16,63.5,16.18,85,4.51l163.46-88.58c12.67-6.87,10.76-53.81,6.85-63.83-2.74-7-3.37,22.86-13.83,17Z"/><path class="cls-13" d="M749.39,2243.91c-25.39-14.16-63.5-16.18-85-4.51L500.89,2328c-21.55,11.67-18.41,32.65,7,46.8l92,51.31c25.38,14.15,63.49,16.17,85,4.5L848.4,2342c21.54-11.67,18.4-32.65-7-46.8Z"/><path class="cls-16" d="M316.05,2485.08c-25.39-14.15-63.5-16.17-85-4.5L67.54,2569.16c-5.52,3-17.56-23.51-19.89-19.57-1.75,3,5.55,36.29,5.59,39.55.11,9.22,7.34,19.05,21.28,26.82l92,51.3c25.39,14.16,63.5,16.18,85.05,4.5l163.47-88.58c12.66-6.86,10.75-53.8,6.84-63.82-2.74-7-3.37,22.86-13.83,17Z"/><path class="cls-13" d="M309.71,2447.88c-25.39-14.15-63.5-16.17-85-4.5L61.2,2532c-21.55,11.67-18.41,32.65,7,46.8l92,51.3c25.39,14.16,63.5,16.18,85,4.51L408.71,2546c21.54-11.67,18.4-32.65-7-46.8Z"/><path class="cls-16" d="M1487.34,2225.8c-25.39-14.15-63.5-16.18-85-4.5l-163.47,88.57c-5.53,3-17.57-23.5-19.9-19.56-1.75,3,5.55,36.29,5.59,39.55.11,9.22,7.34,19,21.28,26.82l92,51.3c25.39,14.16,63.5,16.18,85.05,4.5l163.47-88.58c12.66-6.86,10.75-53.8,6.85-63.82-2.74-7-3.38,22.86-13.84,17Z"/><path class="cls-13" d="M1481,2188.6c-25.39-14.15-63.5-16.17-85-4.5l-163.47,88.58c-21.55,11.67-18.41,32.64,7,46.8l92,51.3c25.39,14.16,63.5,16.18,85,4.5L1580,2286.7c21.53-11.67,18.4-32.64-7-46.79Z"/><path class="cls-16" d="M1073.83,2438c-25.39-14.16-63.5-16.18-85-4.51L825.32,2522c-5.52,3-17.56-23.51-19.89-19.57-1.76,3,5.55,36.3,5.59,39.56.11,9.21,7.34,19,21.28,26.81l92,51.31c25.39,14.15,63.5,16.17,85,4.5l163.47-88.58c12.66-6.86,10.75-53.81,6.84-63.82-2.74-7-3.37,22.85-13.83,17Z"/><path class="cls-13" d="M1067.48,2400.76c-25.38-14.16-63.49-16.18-85-4.51L819,2484.83c-21.55,11.68-18.41,32.65,7,46.8l92,51.31c25.39,14.15,63.49,16.17,85,4.5l163.47-88.58c21.54-11.67,18.4-32.64-7-46.8Z"/><path class="cls-16" d="M1805.43,2382.65c-25.39-14.15-63.5-16.18-85-4.5l-163.47,88.57c-5.53,3-17.57-23.5-19.89-19.56-1.76,3,5.54,36.29,5.58,39.55.12,9.22,7.34,19,21.28,26.82l92,51.3c25.38,14.16,63.49,16.18,85,4.5l163.47-88.58c12.67-6.86,10.75-53.8,6.85-63.82-2.74-7-3.38,22.86-13.84,17Z"/><path class="cls-13" d="M1799.09,2345.45c-25.39-14.15-63.5-16.17-85-4.5l-163.47,88.58c-21.54,11.67-18.41,32.64,7,46.8l92,51.3c25.39,14.16,63.5,16.18,85.05,4.5l163.47-88.58c21.53-11.67,18.4-32.64-7-46.79Z"/><path class="cls-13" d="M897,1458.25c-6-19.8-25.88-28.84-44.38-20.16L-383.59,2017.92c-18.5,8.67-28.65,31.81-22.67,51.61l105.75,349.83c6,19.81,25.86,28.83,44.36,20.16L980.09,1859.69c18.51-8.68,28.68-31.8,22.69-51.61Z"/><path class="cls-18" d="M862,1435.2a34.18,34.18,0,0,0-9.3,2.89L-383.58,2017.93c-18.5,8.67-28.66,31.79-22.67,51.6l105.08,347.63a34.56,34.56,0,0,0,9.3-2.9L944.39,1834.43c18.5-8.68,28.65-31.81,22.67-51.62Z"/><path class="cls-9" d="M186.35,1854.34a73.32,73.32,0,0,1,12.87-2,59.84,59.84,0,0,1,25.74,3.78,58.15,58.15,0,0,1,20.91,14.18,60.54,60.54,0,0,1,13.64,22.92l-44.79,20.24q-4.26-11-13.38-13.34a27.22,27.22,0,0,0-18.46,1.87q-11.19,5.07-15,14.49t-.91,18.06a22.79,22.79,0,0,0,7.27,10.39q5.23,4.35,20.36,3l31.49-2.3q29.81-2.54,45.36,9.33a64.12,64.12,0,0,1,22.12,31.29,67.1,67.1,0,0,1,3.28,28.1,82.25,82.25,0,0,1-7.64,27.57,84.58,84.58,0,0,1-17.6,24.36,86.25,86.25,0,0,1-10.77,9l8.32,24.68-32.73,14.79-8.27-24.52q-19.65,4.86-37.47-.77a57.17,57.17,0,0,1-22.78-13.33q-10.22-9.55-16.21-25.74l44.8-20.25a37.32,37.32,0,0,0,12.44,13.77q8,5.34,21.52-.77a36.25,36.25,0,0,0,16.32-14.59,24.07,24.07,0,0,0,2.28-21.16q-3.06-9.08-10.37-13.22t-22.45-2.78L190.75,1994q-25,2.35-43-7.16t-25.41-31.53a64.71,64.71,0,0,1-3.06-28.21,76.64,76.64,0,0,1,8.49-27.45,79.75,79.75,0,0,1,17.5-23.08,92.14,92.14,0,0,1,8.51-7l-10.4-30.85,32.73-14.79Z"/><path class="cls-9" d="M546,1682.56a73.32,73.32,0,0,1,12.87-2,59.84,59.84,0,0,1,25.74,3.78,58.08,58.08,0,0,1,20.91,14.17,60.8,60.8,0,0,1,13.65,22.93l-44.8,20.24q-4.24-11-13.37-13.34a27.21,27.21,0,0,0-18.46,1.87q-11.21,5.07-15,14.49t-.9,18.06a22.69,22.69,0,0,0,7.26,10.39q5.24,4.35,20.37,3l31.49-2.3q29.79-2.54,45.36,9.33a64.1,64.1,0,0,1,22.11,31.29,67.1,67.1,0,0,1,3.29,28.1,82.48,82.48,0,0,1-7.64,27.57,85,85,0,0,1-17.6,24.36,87.07,87.07,0,0,1-10.78,9l8.32,24.68L596.11,1943l-8.26-24.52q-19.65,4.85-37.48-.77a57.24,57.24,0,0,1-22.78-13.33q-10.22-9.55-16.2-25.74l44.79-20.25a37.41,37.41,0,0,0,12.44,13.77q8,5.34,21.52-.77a36.27,36.27,0,0,0,16.33-14.59,24.07,24.07,0,0,0,2.27-21.16q-3.06-9.08-10.37-13.22t-22.45-2.78l-25.48,2.56q-25,2.36-43-7.16T482,1783.48a64.87,64.87,0,0,1-3.05-28.21,76.18,76.18,0,0,1,8.49-27.45,79.89,79.89,0,0,1,17.49-23.08,92.27,92.27,0,0,1,8.52-7l-10.4-30.85,32.73-14.79Z"/><path class="cls-9" d="M733.09,1592.31a73.6,73.6,0,0,1,12.87-2,59.84,59.84,0,0,1,25.74,3.78,58.08,58.08,0,0,1,20.92,14.17,60.78,60.78,0,0,1,13.64,22.93l-44.8,20.24q-4.25-11-13.37-13.35a27.28,27.28,0,0,0-18.46,1.88q-11.21,5.05-15,14.49t-.9,18.06a22.84,22.84,0,0,0,7.27,10.39q5.22,4.35,20.36,3l31.49-2.29q29.8-2.54,45.36,9.33a64.07,64.07,0,0,1,22.11,31.28,67,67,0,0,1,3.29,28.11,82.61,82.61,0,0,1-7.64,27.57,85,85,0,0,1-17.6,24.36,87.07,87.07,0,0,1-10.78,9l8.32,24.68-32.72,14.79-8.27-24.52q-19.65,4.85-37.48-.77a57.14,57.14,0,0,1-22.77-13.33q-10.21-9.55-16.21-25.75l44.8-20.24a37.29,37.29,0,0,0,12.43,13.77q8,5.34,21.52-.77a36.33,36.33,0,0,0,16.33-14.59,24.09,24.09,0,0,0,2.27-21.17q-3.06-9.06-10.37-13.21T763,1729.35l-25.48,2.57q-25,2.36-43-7.16t-25.42-31.53a64.87,64.87,0,0,1-3-28.21,76.23,76.23,0,0,1,8.49-27.46A80,80,0,0,1,692,1614.49a92.27,92.27,0,0,1,8.52-7l-10.4-30.85,32.73-14.79Z"/><polygon class="cls-7" points="405.51 1992.61 438.71 1976.54 454.73 2009.85 421.53 2025.92 405.51 1992.61"/><path class="cls-19" d="M136.63,943.24a37,37,0,0,1,5.48-19.61c3.71-6.18,8.83-11,14.27-13.33l763.36-331c5.43-2.35,10.06-.78,14.69.77,8.51,2.83,36.69,11.5,36.88,17.87,2.43,79.64-20.19,330.65-17.76,410.29a37,37,0,0,1-5.49,19.61c-3.69,6.18-8.83,11-14.25,13.32l-622.61,270c-5.62,2.44-10.91,7.49-14.63,14-17.59,30.61-48.52,151.76-84.28,214-5.55,9.66-27.09-5.39-44.82-12.48-7.34-2.93-13.28-6.9-13.58-16.75Z"/><path class="cls-20" d="M174.79,959.37a36.86,36.86,0,0,1,5.48-19.61c3.7-6.18,8.83-11,14.26-13.32l763.37-331c5.42-2.35,10.71-2.07,14.68.78s6.33,8,6.52,14.4l12.6,413.76a36.83,36.83,0,0,1-5.48,19.6c-3.7,6.18-8.83,11-14.26,13.33l-622.6,270c-5.63,2.43-10.92,7.49-14.64,14-17.58,30.6-71.07,123.71-106.83,186-5.54,9.65-14.37,15.81-22.27,15.54S192.34,1535.85,192,1526Z"/><path class="cls-21" d="M455.45,915.54a61.58,61.58,0,0,1,12.24-.62q12.93.71,22.35,7a44.5,44.5,0,0,1,15.09,17.49q5.67,11.22,6.07,26l-46.32,16.45q-.81-12.21-8.47-15.74T439.12,966a33.35,33.35,0,0,0-17.65,13.72q-6.08,9.62-5.81,19.14a21.72,21.72,0,0,0,3.73,11.9q3.56,5.24,17.68,5.51l29.26,1.14q27.8.72,38.65,15.13t11.45,35.86a85.25,85.25,0,0,1-4.78,30.31,114.93,114.93,0,0,1-14.56,28.5,112.17,112.17,0,0,1-22.73,23.95,104,104,0,0,1-12.28,8.33l.74,27.24-33.84,12-.73-27.06q-19.2,2.91-33.85-5.11a42.68,42.68,0,0,1-17-16.8q-6.64-11.35-7.61-29.28L416.08,1104a32.83,32.83,0,0,0,7.5,16.09q5.79,6.6,19.77,1.63,10.62-3.76,18.87-13.68a32.39,32.39,0,0,0,7.92-22.29q-.27-10-5.77-15.26T444.73,1065l-23.87-.18q-23.4-.35-37.12-12.54t-14.39-36.5a83,83,0,0,1,5-30.4,106.37,106.37,0,0,1,15.31-28.28A104.66,104.66,0,0,1,412,934.48a106,106,0,0,1,9.66-6.44L420.7,894l33.84-12Z"/><path class="cls-21" d="M646,833.73a60.77,60.77,0,0,1,12.24-.62,43.81,43.81,0,0,1,22.35,7,44.7,44.7,0,0,1,15.09,17.48q5.65,11.22,6.06,26L655.47,900q-.83-12.22-8.47-15.75t-17.3-.11a33.29,33.29,0,0,0-17.64,13.73Q606,907.48,606.24,917A21.73,21.73,0,0,0,610,928.9q3.54,5.24,17.68,5.51l29.26,1.15q27.78.71,38.65,15.12T707,986.54a85.3,85.3,0,0,1-4.78,30.32,115.31,115.31,0,0,1-14.57,28.5,112.39,112.39,0,0,1-22.73,24,103,103,0,0,1-12.27,8.32l.74,27.25-33.84,12-.73-27.07q-19.2,2.93-33.85-5.1a42.71,42.71,0,0,1-17-16.81q-6.65-11.34-7.62-29.28l46.32-16.45a32.61,32.61,0,0,0,7.5,16.09q5.77,6.62,19.77,1.64,10.62-3.78,18.87-13.68a32.43,32.43,0,0,0,7.92-22.29q-.27-10-5.78-15.27t-19.63-5.53L611.45,983q-23.4-.36-37.12-12.55t-14.39-36.5a82.48,82.48,0,0,1,5-30.39,106.43,106.43,0,0,1,15.31-28.29,104.61,104.61,0,0,1,22.28-22.58,106.77,106.77,0,0,1,9.66-6.45l-.92-34.06,33.83-12Z"/><path class="cls-21" d="M824.93,748.5a61.58,61.58,0,0,1,12.24-.62q12.93.71,22.35,7a44.5,44.5,0,0,1,15.09,17.49q5.67,11.22,6.07,26l-46.32,16.46q-.81-12.22-8.47-15.75t-17.29-.11A33.35,33.35,0,0,0,791,812.64q-6.08,9.61-5.81,19.14a21.72,21.72,0,0,0,3.73,11.9q3.55,5.24,17.68,5.51l29.26,1.15q27.8.7,38.65,15.12t11.45,35.86a85.21,85.21,0,0,1-4.78,30.31,115.17,115.17,0,0,1-14.56,28.51,112.36,112.36,0,0,1-22.73,23.94,104,104,0,0,1-12.28,8.33l.74,27.24-33.83,12-.74-27.06q-19.2,2.92-33.85-5.11a42.68,42.68,0,0,1-17-16.8q-6.65-11.34-7.61-29.28L785.56,937a32.83,32.83,0,0,0,7.5,16.09q5.79,6.6,19.77,1.64,10.62-3.78,18.87-13.69a32.38,32.38,0,0,0,7.92-22.28q-.27-10-5.77-15.27t-19.64-5.53l-23.87-.18q-23.4-.35-37.12-12.54t-14.39-36.5a83,83,0,0,1,5-30.4A106.53,106.53,0,0,1,759.16,790a104.66,104.66,0,0,1,22.28-22.59,106.8,106.8,0,0,1,9.67-6.44l-.93-34.06,33.84-12Z"/><g id="path4476"><path class="cls-22" d="M3901.87,1108.14c137,19.32,317.25-53.72,402.46-163.11s43.2-213.82-93.88-233.12S3893.25,765.62,3808,875s-43.16,213.8,93.88,233.11"/></g><g id="path4478"><path class="cls-23" d="M3814,890c85.26-109.4,265.42-182.42,402.46-163.11,64.49,9.08,107.91,37,127,75.39,12.9,40.93,1,91.27-39.1,142.75-85.21,109.39-265.42,182.43-402.46,163.11-64.44-9.1-107.91-37-126.95-75.39C3762,991.82,3774,941.46,3814,890"/></g><g id="path4480"><path class="cls-22" d="M4157.55,953l-66-9.29C4081.9,975,4127.86,979,4157.55,953Zm-192.24-64.22,62.44,8.83C4036,871.47,3997.22,864,3965.31,888.79Zm-83.63-11.34,14.73,2.08c80.91-95.67,255.85-83.44,206.23,28.62l85.27,12q9.26-18,9.12-34.62c-.08-13.8,15.54-29.6,37.08-36.75,20.73-6.88,37.06-9.85,42.75.64,1.26,2.32,4.42,11.38,4.31,14.36-1.05,19.48-9.69,43.18-27.23,65.64l12.92-7.52c3.17.46,6.34,11.42,7.11,13.34s.33,4.44-1.65,6.93L4260.85,957c-4,5-12.25,8.39-18.57,7.52l-14.56-2c-48.82,47.07-107.8,70.92-164.06,63q-79.65-11.24-49-92.6l-73.35-10.34a45,45,0,0,0-2.65,14.85c-.36,13.81-16.59,29.42-37.9,36.48-27.5,9.18-52.52-.66-49.29-19.06,2.35-13.58,9.6-26.7,19.29-41.57l-15.24-2.15c-3-.42-4.9-1.77-5.54-3.63s-6.4-12-4.64-14.24l19.42-8.9c3.57-4.61,11.17-7.69,16.93-6.86"/></g><g id="path4482"><path class="cls-24" d="M4153,941.78l-66-9.29C4077.38,963.73,4123.33,967.75,4153,941.78Zm-192.24-64.22,62.43,8.83C4031.47,860.23,3992.7,852.76,3960.79,877.56Zm-83.63-11.35,14.73,2.09c80.91-95.67,255.85-83.44,206.23,28.61L4183.39,909q9.26-18,9.12-34.62c-.08-13.8,15.52-29.65,37.06-36.8,25.29-8.34,47.87-1.44,47.08,15.05-1,19.48-9.69,43.18-27.23,65.64l14,2c6.34.91,8.28,5.73,4.33,10.76l-11.47,14.78c-3.94,5-12.24,8.39-18.56,7.52l-14.56-2c-48.82,47.06-107.81,70.92-164.06,63q-79.66-11.24-49-92.6l-73.35-10.34a45.22,45.22,0,0,0-2.65,14.85c-.35,13.8-16.6,29.37-37.89,36.48-27.5,9.18-51.25.46-48.05-18,2.37-13.53,8.35-27.77,18.05-42.64L3851,899.85c-5.8-.8-7.57-5.2-4-9.83l13.2-16.94c3.58-4.61,11.18-7.69,16.94-6.87"/></g><g id="path4484"><path class="cls-25" d="M3866.31,1117.93c173.86,24.53,402.36-68.08,510.45-206.89,50.83-65.24,65.94-129.07,49.66-180.94C4425.43,727,4387,631,4385.73,628c-21.37-53.73-40.81-.28-128-12.57-173.8-24.5-402.34,68.13-510.45,206.89-53.68,69-104.92,43.45-84,96.81,1.19,2.94,39.88,98.75,41.27,101.67,23.74,49.5,79.15,85.51,161.77,97.16"/></g><g id="g4486"><g id="g4488"><g class="cls-26"><path id="path4494" class="cls-27" d="M4450.46,791.13a6.48,6.48,0,0,0,3.55-8.41l-70.39-174.8a6.44,6.44,0,1,0-11.94,4.84l70.39,174.8a6.42,6.42,0,0,0,8.39,3.57"/><path id="path4496" class="cls-27" d="M4359.06,638.83l70.38,174.76a6.5,6.5,0,0,0,7.91,3.76l.56-.23a6.52,6.52,0,0,0,3.61-8.43l-70.38-174.75a6.49,6.49,0,0,0-8.45-3.6l-.54.27a6.54,6.54,0,0,0-3.09,8.22"/><path id="path4498" class="cls-27" d="M4346.44,664.91l70.34,174.66a6.56,6.56,0,0,0,8.08,3.74l.58-.18a6.61,6.61,0,0,0,3.61-8.54l-70.34-174.66a6.57,6.57,0,0,0-8.51-3.62l-.54.27a6.61,6.61,0,0,0-3.22,8.33"/><path id="path4500" class="cls-27" d="M4333.83,691l70.3,174.56a6.62,6.62,0,0,0,8.18,3.76l.63-.2a6.64,6.64,0,0,0,3.6-8.59L4346.24,686a6.56,6.56,0,0,0-8.52-3.63l-.6.25a6.66,6.66,0,0,0-3.29,8.41"/><path id="path4538" class="cls-27" d="M3994.78,1151l.65-.26a6.82,6.82,0,0,0,3.75-8.87l-70.13-174.15a6.75,6.75,0,0,0-8.84-3.76l-.65.26a6.8,6.8,0,0,0-3.76,8.87l70.13,174.15a6.8,6.8,0,0,0,8.85,3.76"/><path id="path4540" class="cls-27" d="M3967.46,1157.56l.65-.27a6.81,6.81,0,0,0,3.71-8.85l-70.13-174.15a6.74,6.74,0,0,0-8.8-3.78l-.65.26a6.84,6.84,0,0,0-3.75,8.88l70.13,174.14a6.83,6.83,0,0,0,8.84,3.77"/><path id="path4544" class="cls-27" d="M3836.13,977l70.19,174.28A6.83,6.83,0,0,0,3915,1155l.61-.24a6.76,6.76,0,0,0,3.74-8.76l-70.18-174.29a6.75,6.75,0,0,0-8.78-3.74l-.61.25a6.92,6.92,0,0,0-3.63,8.77"/><path id="path4546" class="cls-27" d="M3811.09,967.74l70.22,174.38a6.74,6.74,0,0,0,8.55,3.72l.63-.2a6.76,6.76,0,0,0,3.7-8.74L3824,962.52a6.66,6.66,0,0,0-8.69-3.66l-.61.24a6.78,6.78,0,0,0-3.57,8.64"/><path id="path4550" class="cls-27" d="M3761,949.32l70.28,174.52a6.69,6.69,0,0,0,8.3,3.77l.61-.25a6.64,6.64,0,0,0,3.64-8.6l-70.28-174.52a6.61,6.61,0,0,0-8.58-3.66l-.61.25a6.73,6.73,0,0,0-3.36,8.49"/><path id="path4552" class="cls-27" d="M3736,940.09l70.31,174.62a6.6,6.6,0,0,0,8.15,3.77l.6-.24a6.6,6.6,0,0,0,3.62-8.54l-70.32-174.62a6.56,6.56,0,0,0-8.52-3.62l-.6.24a6.65,6.65,0,0,0-3.24,8.39"/><path id="path4558" class="cls-27" d="M3739.61,1090.88a6.51,6.51,0,0,0,3.56-8.41l-70.39-174.8a6.44,6.44,0,1,0-11.94,4.84l70.39,174.8a6.43,6.43,0,0,0,8.38,3.57"/></g></g></g><g id="path4560"><path class="cls-28" d="M3828.9,1025c173.86,24.53,402.36-68.08,510.45-206.89S4394.16,547,4220.29,522.5,3818,590.63,3709.84,729.39,3655.09,1000.53,3828.9,1025"/></g><g id="path4562"><path class="cls-29" d="M3838.32,1013c165.45,23.31,383-64.87,485.91-196.94s52.13-258.1-113.34-281.46-383,64.86-485.92,196.94-52.12,258.1,113.35,281.46"/></g><g id="path4564"><path class="cls-30" d="M3870.33,971.87c137.05,19.36,317.22-53.66,402.45-163.11S4316,595,4178.91,575.64s-317.25,53.73-402.46,163.12-43.21,213.82,93.88,233.11"/></g><g id="path4566"><path class="cls-31" d="M3782.5,753.78c85.19-109.43,265.4-182.47,402.44-163.16,64.44,9.1,107.91,37,127,75.44,12.88,40.88.93,91.24-39.13,142.7-85.23,109.45-265.4,182.47-402.45,163.11-64.49-9.08-107.91-37-127-75.37-12.84-40.91-.93-91.24,39.17-142.72"/></g><g id="path4568"><path class="cls-30" d="M4126,816.79l-66-9.34C4050.36,838.69,4096.27,842.74,4126,816.79Zm-192.31-64.25,62.48,8.81C4004.4,735.21,3965.69,727.77,3933.72,752.54Zm-83.56-11.32,14.71,2c80.91-95.67,255.8-83.42,206.18,28.64l85.32,12c6.19-12,9.18-23.54,9.14-34.57-.12-11.47,68.44-31.49,68.44-31.49l8.6,15.57s-2.66,37.32-20.18,59.83l12.9-7.57c3.17.46,6.39,11.4,7.18,13.37s.26,4.41-1.71,7l-11.48,14.73c-3.95,5-12.25,8.39-18.57,7.52l-14.55-2c-48.83,47.06-107.8,71-164,63q-79.73-11.21-49-92.6l-73.39-10.32c-1.62,4.35-16.31,56.54-16.31,56.54l-71.69-1.92L3817.64,829S3832.07,788,3839.16,777l-15.24-2.15c-3-.42-4.9-1.77-5.54-3.64s-6.34-12-4.63-14.18l19.43-8.91c3.61-4.62,11.17-7.68,17-6.88"/></g><g id="path4570"><path class="cls-29" d="M4121.49,805.51l-66-9.29C4045.84,827.46,4091.74,831.5,4121.49,805.51Zm-192.29-64.2,62.48,8.81C3999.88,724,3961.17,716.53,3929.2,741.31Zm-83.59-11.37,14.74,2.09c80.91-95.67,255.8-83.42,206.18,28.63l85.31,12c14.49-25.34,13.76-46.14,13.76-46.14l68.58-9.19s1.19,42.16-16.33,64.67l14,2c6.32.87,8.26,5.69,4.33,10.77l-11.49,14.72c-3.94,5-12.25,8.4-18.56,7.53l-14.56-2c-48.82,47.06-107.81,70.91-164,63q-79.73-11.21-49-92.6l-73.4-10.32c-1.61,4.35-16.78,56.28-16.78,56.28L3817.09,830s7.92-49.33,17.55-64.23l-15.25-2.15c-5.76-.82-7.53-5.22-3.94-9.78l13.18-17c3.62-4.63,11.18-7.69,17-6.89"/></g><g id="path44761"><path class="cls-22" d="M3368.86,503.1c94.86,137.73,306.66,238.45,473,224.92s224.37-136.21,129.45-274-306.61-238.43-473-224.93S3274,365.36,3368.86,503.1"/></g><g id="path44781"><path class="cls-23" d="M3490,246.72c166.39-13.5,378.14,87.19,473,224.93,44.65,64.81,55.43,126.26,37,174.57-25.66,44.92-79.9,75.44-158.17,81.8-166.34,13.53-378.14-87.19-473-224.92-44.6-64.79-55.44-126.26-37-174.57,25.65-44.92,79.95-75.42,158.17-81.81"/></g><g id="path44801"><path class="cls-22" d="M3714.9,603.93l-45.69-66.32C3633.69,554.53,3667.67,598.71,3714.9,603.93ZM3614.65,380.37l43.2,62.78C3687.7,429.12,3662.64,388.51,3614.65,380.37Zm-58.29-83.69,10.19,14.81c150.7-6.14,282.79,159.53,143.16,206.91l59,85.73c15.68-4.34,28.38-11,38.07-20.17,12.13-11.33,38.86-10.35,62.78,3,23,12.83,39,24.94,34.35,38.57-1,3-6.45,13.23-9.17,15.58-18.09,15-46.1,26.64-80.29,29.38l17.21,5.35c2.18,3.2-4.92,15-6,17.23s-3.66,3.92-7.48,4.19l-22.44,1.86c-7.67.6-17.42-4-21.82-10.38l-10.08-14.63c-81.5-5-150.77-38-189.74-94.53Q3519,499.48,3616,460.29l-50.78-73.73a54,54,0,0,0-15.29,9.77c-12.5,11-39.57,9.28-63.21-3.92-30.59-17-42.33-47.28-23.42-59.44,13.93-9,31.45-13.27,52.52-16.79l-10.55-15.32c-2.08-3-2.43-5.8-1.31-7.9s5.38-15.49,8.79-15.76l23.74,10c7-.58,15.93,3.67,19.9,9.47"/></g><g id="path44821"><path class="cls-24" d="M3721.13,590.72l-45.68-66.31C3639.93,541.33,3673.91,585.51,3721.13,590.72ZM3620.89,367.17,3664.08,430C3693.94,415.92,3668.88,375.31,3620.89,367.17Zm-58.29-83.69,10.19,14.81c150.69-6.14,282.79,159.53,143.16,206.91l59,85.72q23.52-6.49,38.06-20.16c12.14-11.34,38.9-10.4,62.81,2.93,28,15.69,40.39,41.43,25.16,54.19-18.09,15-46.1,26.65-80.29,29.39l9.71,14.12c4.37,6.38,1.69,12.05-6,12.65L3802,685.9c-7.67.6-17.43-4-21.82-10.38l-10.08-14.63c-81.5-5-150.78-38-189.74-94.53q-55.12-80.08,41.85-119.27l-50.78-73.73a54,54,0,0,0-15.29,9.77c-12.5,11-39.54,9.22-63.21-3.92-30.59-17-42.29-45.24-23.35-57.45,13.9-8.95,31.38-15.26,52.45-18.78l-10.56-15.32c-4-5.83-1.58-11,5.46-11.55l25.77-2.1c7-.58,15.93,3.67,19.9,9.47"/></g><g id="path44841"><path class="cls-25" d="M3331.15,479.44C3451.49,654.21,3720,781.92,3931.08,764.73c99.22-8.06,168-46.76,200.57-103.62,2-3.44,55.38-116.07,57.07-119.64,30.06-62.91-33.09-36.55-93.47-124.21C3974.94,242.57,3706.34,114.84,3495.32,132c-104.83,8.55-124.13-57.88-154.2,4.34-1.64,3.47-54.76,116.17-56.2,119.79-24.39,61.56-11,140.29,46.23,223.33"/></g><g id="g44861"><g id="g44881"><g class="cls-32"><path id="path44941" class="cls-27" d="M4097.32,732.36a7.77,7.77,0,0,0,10.34-3.7l97.07-205.45a7.77,7.77,0,1,0-14-6.67L4093.63,722a7.77,7.77,0,0,0,3.69,10.38"/><path id="path44961" class="cls-27" d="M4157.33,526.61l-97,205.39a7.88,7.88,0,0,0,3.14,10.11l.66.32a7.83,7.83,0,0,0,10.4-3.68l97-205.39a7.89,7.89,0,0,0-3.72-10.46l-.68-.25a7.83,7.83,0,0,0-9.8,4"/><path id="path44981" class="cls-27" d="M4124,536.68,4027,742a8,8,0,0,0,3.28,10.25l.63.36a7.94,7.94,0,0,0,10.51-3.76l97-205.27a8,8,0,0,0-3.75-10.54l-.68-.26a7.92,7.92,0,0,0-10,3.94"/><path id="path45001" class="cls-27" d="M4090.61,546.75l-96.94,205.17a8,8,0,0,0,3.36,10.35l.69.4a8,8,0,0,0,10.53-3.82l96.94-205.16a8,8,0,0,0-3.75-10.54l-.71-.34a8,8,0,0,0-10.12,3.94"/><path id="path45381" class="cls-27" d="M3406.85,620.79l.77.37a8.19,8.19,0,0,0,10.91-3.91l96.7-204.67a8.19,8.19,0,0,0-3.89-10.94l-.77-.37a8.15,8.15,0,0,0-10.91,3.91L3403,609.85a8.23,8.23,0,0,0,3.9,10.94"/><path id="path45401" class="cls-27" d="M3378.74,601.84l.77.36a8.17,8.17,0,0,0,10.85-3.93l96.71-204.67a8.18,8.18,0,0,0-3.84-10.92l-.77-.37a8.2,8.2,0,0,0-10.91,3.91l-96.7,204.67a8.27,8.27,0,0,0,3.89,11"/><path id="path45441" class="cls-27" d="M3431.15,337.44l-96.78,204.83a8.29,8.29,0,0,0,3.78,10.76l.71.34a8.1,8.1,0,0,0,10.8-3.83l96.78-204.83a8.15,8.15,0,0,0-3.86-10.86l-.71-.34a8.29,8.29,0,0,0-10.72,3.93"/><path id="path45461" class="cls-27" d="M3418.85,307.61,3322,512.55a8.17,8.17,0,0,0,3.7,10.65l.68.4a8.11,8.11,0,0,0,10.75-3.85L3434,314.8a8.09,8.09,0,0,0-3.87-10.72l-.71-.34a8.13,8.13,0,0,0-10.56,3.87"/><path id="path45501" class="cls-27" d="M3394.24,248l-96.92,205.11a8.11,8.11,0,0,0,3.45,10.46l.71.34a8,8,0,0,0,10.59-3.79L3409,255a8,8,0,0,0-3.77-10.62l-.72-.34a8.06,8.06,0,0,0-10.25,3.95"/><path id="path45521" class="cls-27" d="M3381.94,218.18,3285,423.4a8,8,0,0,0,3.31,10.33l.71.34a7.91,7.91,0,0,0,10.51-3.76l97-205.22a7.94,7.94,0,0,0-3.75-10.54l-.71-.34a8,8,0,0,0-10.07,4"/><path id="path45581" class="cls-27" d="M3251.57,344.6a7.81,7.81,0,0,0,10.34-3.71L3359,135.45a7.8,7.8,0,0,0-3.69-10.37,7.71,7.71,0,0,0-10.34,3.7l-97.07,205.44a7.82,7.82,0,0,0,3.69,10.38"/></g></g></g><g id="path45601"><path class="cls-28" d="M3382.74,370.26C3503.08,545,3771.62,672.73,3982.67,655.54s284.51-172.69,164.17-347.46S3757.92,5.66,3546.91,22.8s-284.48,172.77-164.17,347.46"/></g><g id="path45621"><path class="cls-29" d="M3401.08,368.81c114.55,166.29,370.26,287.89,571.09,271.57s270.82-164.45,156.3-330.8S3758.26,21.72,3557.38,38s-270.82,164.45-156.3,330.8"/></g><g id="path45641"><path class="cls-30" d="M3463.59,363.71c94.84,137.79,306.58,238.48,473,224.92s224.29-136.18,129.45-274S3759.37,76.21,3593,89.73s-224.37,136.22-129.45,274"/></g><g id="path45661"><path class="cls-31" d="M3584.7,107.39c166.36-13.58,378.16,87.13,473,224.87,44.6,64.79,55.44,126.26,37,174.62-25.63,44.87-79.93,75.37-158.15,81.75-166.42,13.56-378.16-87.13-473-224.92-44.65-64.82-55.44-126.26-37.1-174.6,25.69-44.84,79.93-75.36,158.21-81.72"/></g><g id="path45681"><path class="cls-30" d="M3809.6,464.59,3764,398.22C3728.42,415.14,3762.35,459.3,3809.6,464.59ZM3709.33,241l43.25,62.8C3782.38,289.71,3757.35,249.17,3709.33,241Zm-58.26-83.62,10.22,14.76C3812,166,3944,331.61,3804.39,379l59.07,85.74c15.65-4.27,28.32-11.05,38-20.1,10.05-9.47,83.76,35.19,83.76,35.19l-6.74,20.37s-35.18,28.13-69.4,30.92l17.24,5.3c2.18,3.19-4.87,15-6,17.3s-3.69,3.84-7.54,4.17l-22.41,1.8c-7.67.6-17.43-4-21.82-10.37l-10.08-14.63c-81.5-5-150.8-38-189.68-94.51q-55.21-80.12,41.85-119.27l-50.84-73.76c-5.16,2.13-63.31,31.68-63.31,31.68l-56.87-65.37,7.16-13.31s48.13-20.72,63.62-23.37l-10.55-15.33c-2.08-3-2.43-5.8-1.31-7.89s5.4-15.42,8.76-15.71l23.74,10c7-.56,15.93,3.67,20,9.49"/></g><g id="path45701"><path class="cls-29" d="M3815.87,451.33,3770.19,385C3734.66,401.94,3768.59,446.1,3815.87,451.33Zm-100.3-223.58,43.25,62.81C3788.62,276.51,3763.59,236,3715.57,227.75Zm-58.24-83.66,10.19,14.81c150.7-6.14,282.73,159.51,143.11,206.89l59.06,85.74c34.24-7.8,52-25.44,52-25.44l64.14,53.53s-36.31,35.5-70.53,38.29l9.71,14.11c4.4,6.34,1.72,12-6,12.65l-22.41,1.81c-7.67.6-17.43-4-21.82-10.38l-10.08-14.62c-81.5-5-150.78-38-189.69-94.52q-55.22-80.1,41.85-119.27l-50.83-73.75c-5.17,2.13-63.48,31-63.48,31l-57.06-64.56s50.1-33.25,71.14-36.85l-10.56-15.33c-4-5.8-1.53-11,5.43-11.49l25.8-2.16c7-.55,15.92,3.67,19.95,9.5"/></g><g id="path44762"><path class="cls-22" d="M488.53,506.82C323,528.23,106.7,437.68,5.45,304.6S-43.74,46.17,121.83,24.78,503.6,93.91,604.91,227,654,485.42,488.53,506.82"/></g><g id="path44782"><path class="cls-23" d="M597.44,245C496.13,111.88,279.87,21.35,114.36,42.76,36.47,52.83-16.27,85.89-39.76,131.92-55.88,181.11-42.21,242,5.45,304.6,106.7,437.68,323,528.23,488.53,506.82c77.83-10.09,130.63-43.13,154.11-89.16C658.76,368.47,645,307.59,597.44,245"/></g><g id="path44802"><path class="cls-22" d="M182.32,316.25,262,305.94C273.25,343.76,217.78,348,182.32,316.25ZM415,241.44l-75.41,9.79C330,219.58,376.88,211.1,415,241.44Zm101-12.53-17.79,2.31C402,114.75,190.85,127.09,249.16,262.9l-103,13.34q-10.92-21.89-10.53-41.87c.28-16.63-18.33-35.9-44.21-44.82-24.9-8.58-44.55-12.39-51.55.18-1.55,2.78-5.49,13.67-5.41,17.26,1,23.51,11.1,52.2,32,79.53l-15.49-9.25c-3.82.51-7.79,13.69-8.75,16s-.45,5.35,1.9,8.38l13.63,18C62.4,325.73,72.37,329.91,80,329l17.58-2.27c58.23,57.42,129,87,197,78.23q96.21-12.45,60.37-111l88.59-11.46a54.41,54.41,0,0,1,3,17.94c.24,16.65,19.6,35.71,45.2,44.51,33,11.46,63.34-.07,59.7-22.3-2.64-16.41-11.21-32.33-22.7-50.39l18.42-2.39c3.61-.46,5.92-2.07,6.72-4.31s7.89-14.37,5.8-17.09l-23.3-11C532.1,231.82,523,228,516,228.91"/></g><g id="path44822"><path class="cls-24" d="M187.93,302.76l79.7-10.3C278.86,330.27,223.39,334.49,187.93,302.76ZM420.63,228l-75.41,9.79C335.64,206.1,382.49,197.61,420.63,228Zm101-12.53-17.79,2.31C407.58,101.26,196.46,113.6,254.76,249.41l-103,13.35c-7.28-14.59-10.82-28.53-10.53-41.87.28-16.64-18.31-36-44.19-44.88-30.38-10.41-57.71-2.39-57,17.5C41.08,217,51.17,245.71,72,273l-16.95,2.2c-7.66,1-10.07,6.8-5.38,12.92l13.63,18C68,312.25,78,316.43,85.61,315.46l17.58-2.27c58.23,57.43,129,87,197,78.24q96.2-12.45,60.36-111L449.13,269a54.36,54.36,0,0,1,3,17.94c.24,16.65,19.62,35.65,45.19,44.51,33,11.45,61.8,1.26,58.19-21q-4-24.52-21.18-51.67l18.42-2.38c7-.89,9.2-6.17,4.9-11.8L542,223.94c-4.25-5.6-13.37-9.43-20.33-8.51"/></g><g id="path44842"><path class="cls-25" d="M531.28,519.11C321.28,546.3,47,431.49-81.43,262.62c-60.42-79.37-77.76-156.55-57.42-218.87C-137.61,40-89.9-75.2-88.38-78.85c26.49-64.49,49.21.22,154.55-13.39C276.09-119.4,550.41-4.56,678.88,164.25c63.79,83.89,125.93,53.84,100,117.89-1.47,3.54-49.44,118.54-51.16,122-29.29,59.37-96.61,102-196.39,114.93"/></g><g id="g44862"><g id="g44882"><g class="cls-33"><path id="path45382" class="cls-27" d="M375.91,557.23l-.78-.33a8.23,8.23,0,0,1-4.41-10.75l86.95-209a8.15,8.15,0,0,1,10.71-4.42l.78.33a8.2,8.2,0,0,1,4.41,10.75l-86.95,209a8.18,8.18,0,0,1-10.71,4.42"/><path id="path45402" class="cls-27" d="M408.76,565.51l-.78-.33a8.21,8.21,0,0,1-4.35-10.72l86.94-209A8.14,8.14,0,0,1,501.23,341l.78.33a8.23,8.23,0,0,1,4.41,10.75l-86.95,209a8.22,8.22,0,0,1-10.71,4.42"/><path id="path45442" class="cls-27" d="M569.59,349.55l-87,209.2a8.26,8.26,0,0,1-10.5,4.38l-.73-.31a8.16,8.16,0,0,1-4.4-10.61L554,343a8.12,8.12,0,0,1,10.63-4.39l.73.31a8.34,8.34,0,0,1,4.26,10.62"/><path id="path45462" class="cls-27" d="M599.92,338.76,512.86,548.07a8.14,8.14,0,0,1-10.37,4.37l-.75-.25a8.14,8.14,0,0,1-4.34-10.59l87.06-209.31A8,8,0,0,1,595,328l.73.31a8.17,8.17,0,0,1,4.2,10.46"/><path id="path45502" class="cls-27" d="M660.54,317.24,573.41,526.73a8.06,8.06,0,0,1-10.06,4.42l-.73-.3a8,8,0,0,1-4.27-10.43l87.13-209.48a8,8,0,0,1,10.4-4.29l.73.31a8.1,8.1,0,0,1,3.93,10.28"/><path id="path45522" class="cls-27" d="M690.87,306.46,603.69,516.05a7.92,7.92,0,0,1-9.87,4.44l-.73-.3a8,8,0,0,1-4.24-10.35L676,300.25A7.91,7.91,0,0,1,686.35,296l.73.31a8,8,0,0,1,3.79,10.16"/><path id="path45582" class="cls-27" d="M684.42,488.24a7.85,7.85,0,0,1-4.17-10.19l87.27-209.82a7.77,7.77,0,1,1,14.33,6L694.58,484.05a7.76,7.76,0,0,1-10.16,4.19"/></g></g></g><g id="path45602"><path class="cls-28" d="M577.66,407.6C367.67,434.79,93.39,320-35,151.11s-62.39-327.68,147.6-354.86S596.79-116.07,725.26,52.74s62.32,327.71-147.6,354.86"/></g><g id="path45622"><path class="cls-29" d="M566.46,393c-199.83,25.83-461-83.5-583.26-244.17S-76.13-163.16,123.73-189,584.67-105.58,707,55.11s59.33,312-140.53,337.85"/></g><g id="path45642"><path class="cls-30" d="M528.43,342.93c-165.54,21.46-381.8-69.06-483.09-202.22S-3.81-117.65,161.73-139.11,543.56-70,644.81,63.12,694,321.55,528.43,342.93"/></g><g id="path45662"><path class="cls-31" d="M637.31,81.15C536.08-52,319.76-142.54,154.25-121.13,76.42-111,23.62-78,.11-31.91-16,17.22-2.25,78.11,45.34,140.71,146.63,273.87,362.89,364.39,528.43,342.93c77.88-10.07,130.63-43.13,154.17-89.14,16-49.15,2.37-110-45.29-172.64"/></g><g id="path45682"><path class="cls-30" d="M222.2,152.41l79.72-10.36C313.15,179.86,257.73,184.11,222.2,152.41ZM455,77.57l-75.46,9.77C370,55.71,416.76,47.26,455,77.57ZM555.9,65.08l-17.77,2.25C441.87-49.14,230.81-36.78,289.11,99l-103,13.32c-7.31-14.53-10.76-28.51-10.55-41.81.29-13.82-82.11-38.91-82.11-38.91L82.82,50.28s2.7,45.05,23.53,72.43L90.89,113.4c-3.83.51-7.85,13.67-8.84,16s-.37,5.32,2,8.4l13.66,17.92c4.68,6.12,14.65,10.29,22.28,9.33l17.58-2.27c58.24,57.42,129,87.05,196.92,78.21q96.3-12.42,60.37-111l88.65-11.44c1.89,5.27,18.89,68.4,18.89,68.4l86.48-1.32,5.07-14.25s-16.85-49.75-25.24-63.07L587.08,106c3.61-.47,5.93-2.08,6.73-4.31s7.8-14.35,5.77-17l-23.3-11C572,68,562.91,64.19,555.9,65.08"/></g><g id="path45702"><path class="cls-29" d="M227.83,138.87l79.7-10.3C318.76,166.38,263.34,170.62,227.83,138.87ZM460.58,64.09l-75.46,9.77C375.59,42.23,422.37,33.78,460.58,64.09ZM561.53,51.54l-17.79,2.31c-96.27-116.48-307.33-104.11-249,31.7L191.67,98.87c-17.12-30.75-16-55.83-16-55.83L93.14,31s-2,50.83,18.81,78.21l-17,2.2c-7.64,1-10,6.75-5.38,12.92l13.65,17.92c4.69,6.12,14.66,10.29,22.29,9.33l17.58-2.27c58.23,57.42,129,87,196.92,78.21q96.3-12.42,60.37-111l88.65-11.43c1.88,5.27,19.47,68.1,19.47,68.1l86-.65s-8.87-59.6-20.27-77.69l18.41-2.39c6.95-.91,9.15-6.19,4.88-11.74L581.91,60.07c-4.3-5.63-13.37-9.42-20.38-8.53"/></g><g id="path2608"><path class="cls-34" d="M1594.37,1025.8c.29-8.76.6-13.67,1-13.88l984.82,40.92L4756.66,2322.5,3814.81,2870,1595.32,1584.68c-.62-.37-1.14-15.59-1.56-40.87,10.78-1.55,6.09-5.74-.15-10-.06-4.46-.12-9.17-.19-14.1,4.86-.44,9.75-.42,11-2.53.23-.41-1.55-2-1.74-2.19-3-2.84-6.16-5.57-9.42-8.18,0-4.66-.1-9.5-.14-14.48a25.5,25.5,0,0,1,3.57.74c2.61.83,10.24,2.39,8.21.54-3.62-3.26-7.72-5.34-11.83-7.62,0-2.9,0-5.83-.07-8.8,4.6-.73,10-.6,12.72-1,2.5-.31,9.79-1.29,7.32-1.77-6.54-1.27-13.33-.85-20.07-.09q-.06-8.55-.1-17.51a8.34,8.34,0,0,0,1.55-1.81c1.08-1.75.18-3.65-1.61-5.6,0-6.79-.07-13.74-.11-20.79,6.25-1.13,12.69-2.12,14.33-7.48,1.23-4-6.75-5.42-14.39-8.09-.11-27.5-.18-56.69-.21-86.3,2.77-.32,5.42-.53,7.7-.77.28,0,3.87.11,3.93-.15.64-2.83-5.72-1.29-8.24-2.72-1.16-.65-2.29-1.32-3.39-2V1308.1c1,0,1.87-.06,2.65-.06,3.45,0,8.29.74,11.7-.41.31-.09,1.17-.12.92-.35-3.63-3.59-9.45-6.89-15.28-10.38,0-46.94.11-93.85.32-135.65,4.75-1.31,9-2.89,10.72-6.17.16-.32-1.8-1.72-2-1.9a53.13,53.13,0,0,0-8.62-4.35c0-8.79.1-17.33.16-25.57a35.27,35.27,0,0,1,3.54-4.51c1.52-1.63,8.75-3.94,8.92-6.58.15-2.46-5.9-5.3-12.31-8,.1-11.81.22-22.78.34-32.75,2.75-2,10.07-2.24,12.29-4.17,3.59-3.1-4.62-7.19-12.08-10.11l0-3.41c0-1.21,0-2.41,0-3.62l0-1a62.28,62.28,0,0,1,10.8-1.87c.43,0,2.34-.07,2.55-.64.43-1.24-1.74-2-2.51-3.05C1600.51,1037.79,1596.88,1032.46,1594.37,1025.8Z"/></g><g id="path26081"><path class="cls-35" d="M1594.37,1025.8c.29-8.76.6-13.67,1-13.88l984.82,40.92L4756.66,2322.5,3814.81,2870,1595.32,1584.68c-.62-.37-1.14-15.59-1.56-40.87,10.78-1.55,6.09-5.74-.15-10-.06-4.46-.12-9.17-.19-14.1,4.86-.44,9.75-.42,11-2.53.23-.41-1.55-2-1.74-2.19-3-2.84-6.16-5.57-9.42-8.18,0-4.66-.1-9.5-.14-14.48a25.5,25.5,0,0,1,3.57.74c2.61.83,10.24,2.39,8.21.54-3.62-3.26-7.72-5.34-11.83-7.62,0-2.9,0-5.83-.07-8.8,4.6-.73,10-.6,12.72-1,2.5-.31,9.79-1.29,7.32-1.77-6.54-1.27-13.33-.85-20.07-.09q-.06-8.55-.1-17.51a8.34,8.34,0,0,0,1.55-1.81c1.08-1.75.18-3.65-1.61-5.6,0-6.79-.07-13.74-.11-20.79,6.25-1.13,12.69-2.12,14.33-7.48,1.23-4-6.75-5.42-14.39-8.09-.11-27.5-.18-56.69-.21-86.3,2.77-.32,5.42-.53,7.7-.77.28,0,3.87.11,3.93-.15.64-2.83-5.72-1.29-8.24-2.72-1.16-.65-2.29-1.32-3.39-2V1308.1c1,0,1.87-.06,2.65-.06,3.45,0,8.29.74,11.7-.41.31-.09,1.17-.12.92-.35-3.63-3.59-9.45-6.89-15.28-10.38,0-46.94.11-93.85.32-135.65,4.75-1.31,9-2.89,10.72-6.17.16-.32-1.8-1.72-2-1.9a53.13,53.13,0,0,0-8.62-4.35c0-8.79.1-17.33.16-25.57a35.27,35.27,0,0,1,3.54-4.51c1.52-1.63,8.75-3.94,8.92-6.58.15-2.46-5.9-5.3-12.31-8,.1-11.81.22-22.78.34-32.75,2.75-2,10.07-2.24,12.29-4.17,3.59-3.1-4.62-7.19-12.08-10.11l0-3.41c0-1.21,0-2.41,0-3.62l0-1a62.28,62.28,0,0,1,10.8-1.87c.43,0,2.34-.07,2.55-.64.43-1.24-1.74-2-2.51-3.05C1600.51,1037.79,1596.88,1032.46,1594.37,1025.8Z"/></g><g id="path2612"><path class="cls-36" d="M3812.71,2306,1598,1023.2a8.56,8.56,0,0,1,0-14.77L2527.58,470,4755,1760.13,3812.71,2306"/></g><g id="path2616"><path class="cls-37" d="M3823.61,2245.31,1689.92,1009.47l826.75-478.88,2133.7,1235.83-826.76,478.89"/></g><ellipse class="cls-36" cx="2006.51" cy="1082.39" rx="51.43" ry="147.07" transform="translate(138.63 2389.56) rotate(-63.33)"/><ellipse class="cls-36" cx="3665.92" cy="2037.94" rx="51.43" ry="147.07" transform="translate(199.32 4399.05) rotate(-63.33)"/><g id="path2620"><path class="cls-36" d="M4094.66,1680.57c-74-42.93-108.19-100.3-103.28-156.76L2894.77,888.6c-102.78,5.81-209.31-14-287.6-59.3L2370.81,692.37l-406.13,235.2,236.46,136.95c76.13,44.1,110.26,103.64,102.88,161.64L3408.7,1866c94.72-1.48,190.23,18.4,262.13,60l285.34,165.3L4380,1845.8l-285.34-165.23"/></g><g id="path2624"><path class="cls-37" d="M3456.87,1554c-190.3,110.18-472.93,125.2-631.26,33.47s-132.38-255.4,57.82-365.6,472.84-125.13,631.17-33.47,132.48,255.41-57.73,365.6"/></g><g id="path2628"><path class="cls-37" d="M2671.07,1106.19c-93.48,54.19-245.13,54.19-338.61,0s-93.59-141.94,0-196.14,245.13-54.11,338.61,0,93.48,142,0,196.14"/></g><path class="cls-36" d="M2632.24,939.51a51.57,51.57,0,0,1,8.5,7.47q7.74,8.61,8,17.93t-6.4,18.83q-6.71,9.53-20.1,17.56l-45.23-20.86q10.77-7,9.08-13.7T2575,955.66a46.26,46.26,0,0,0-24.13-4q-12.82,1.2-21.47,6.38a21.75,21.75,0,0,0-8.59,8.65q-2.53,5,6.37,14.18l17.89,19.26q17.35,18.07,11,32.61t-25.75,26.19a121.07,121.07,0,0,1-31.14,12.93,178.79,178.79,0,0,1-35.8,5.73,168.17,168.17,0,0,1-36.88-1.87,139.56,139.56,0,0,1-15.66-3.44l-24.72,14.83-33-15.24,24.56-14.73q-15.14-10.69-17.21-24.27-1.68-9.49,4.52-19.71t22.15-20.28l45.22,20.86q-7.65,6.09-10,13.26t11.3,13.47q10.36,4.79,24.88,4.82a48.75,48.75,0,0,0,25.75-6.7q9.07-5.44,10.38-11.72t-7.61-15.44l-15.3-15.31q-14.83-15.09-12.45-30.28t24.44-28.4a118,118,0,0,1,31.37-12.82,165.88,165.88,0,0,1,36.09-5.14,155.8,155.8,0,0,1,35.32,2.3q6.28,1.14,12.23,2.77l30.9-18.54,33,15.24Z"/><g id="path26281"><path class="cls-37" d="M3925.24,1805.74c-93.48,54.19-245.13,54.19-338.61,0s-93.59-141.94,0-196.14,245.13-54.11,338.61,0,93.48,142,0,196.14"/></g><path class="cls-36" d="M3886.4,1639.06a51.61,51.61,0,0,1,8.5,7.48q7.74,8.61,8,17.92t-6.4,18.84q-6.7,9.51-20.1,17.55L3831.21,1680q10.77-7,9.08-13.7t-11.11-11.09a46.36,46.36,0,0,0-24.13-4q-12.83,1.18-21.47,6.38a21.75,21.75,0,0,0-8.59,8.65q-2.53,5,6.37,14.17l17.89,19.26q17.36,18.09,11.05,32.61t-25.75,26.2a121.07,121.07,0,0,1-31.14,12.93,180.24,180.24,0,0,1-35.8,5.73,168.79,168.79,0,0,1-36.88-1.87,141.81,141.81,0,0,1-15.66-3.44l-24.72,14.82-33-15.23,24.56-14.74q-15.13-10.7-17.21-24.27-1.68-9.48,4.52-19.7t22.15-20.28l45.23,20.85q-7.67,6.11-10,13.26t11.3,13.47q10.36,4.79,24.88,4.82a48.75,48.75,0,0,0,25.75-6.69q9.08-5.45,10.38-11.73t-7.61-15.43l-15.3-15.31q-14.83-15.11-12.45-30.28t24.44-28.4a117.35,117.35,0,0,1,31.37-12.82,166.5,166.5,0,0,1,36.09-5.15,155.77,155.77,0,0,1,35.32,2.31q6.28,1.14,12.23,2.76l30.9-18.54,33,15.24Z"/><g id="path2636"><path class="cls-38" d="M3812.71,2306,4755,1760.13v566.34l-942.28,545.84V2306"/></g><g id="path26361"><path class="cls-39" d="M3812.71,2306,4755,1760.13v566.34l-942.28,545.84V2306"/></g><g id="path2640"><path class="cls-40" d="M2249.28,1400.4,2729,1678.3,3672.86,1132,3193.07,853.77,2249.28,1400.4"/></g><g id="path2644"><path class="cls-29" d="M2249,1400.22l66.51,39.23,944.54-546.94-66.51-39.23L2249,1400.22"/></g><g id="path2648"><path class="cls-29" d="M2662.51,1640.43l68,38.67,942.38-547.25-65.72-37.62-944.63,546.2"/></g><g id="path2652"><path class="cls-41" d="M2249.08,1400.22v567.57l481.8,281.41-1.77-571-480-278"/></g><g id="path2656"><path class="cls-31" d="M2249.07,1400.21v567.57l68.13,42.75-.85-571.9-67.28-38.42"/></g><g id="path2660"><path class="cls-31" d="M2663.46,1639.74l-.7,568.51,68.12,42.74-.27-572-67.15-39.23"/></g><g id="path2664"><path class="cls-42" d="M2945.94,2040.36l865.31,487.34-5.38-.06,59.24-32.87,59.35-32.61,118.87-64.6c39.6-21.62,79.49-42.87,119.28-64.18s79.77-42.19,119.66-63.31l.49.93c-39.11,22.54-78,45.4-117.32,67.63s-78.31,44.72-117.8,66.77l-118,66.22-59.25,32.85-59.24,32.61-2.74,1.49-2.54-1.55-860.42-495.74.49-.92"/></g><path class="cls-43" d="M2788.71,2105l779.86,430.65s-396.85-221-452.73-240.16S2788.71,2105,2788.71,2105Z"/><path class="cls-43" d="M3812.53,2415.6l.94-11.08-245.22-130.25Z"/><path class="cls-44" d="M2731.18,2248.34l13.21-560.25-14.21-8.28Z"/><path class="cls-44" d="M2730.18,1679.81l14.21,8.28,931-553.13-3.67-2.81Z"/><g id="path2668"><path class="cls-45" d="M1592,1495.85l325.86,186.94-325.77-174.08Z"/></g><path class="cls-46" d="M1625.1,1341.54l580,290s-247.11-141.73-292.3-163S1625.1,1341.54,1625.1,1341.54Z"/><path class="cls-46" d="M1591.75,1164.57l258.25,123-257.84-136.7s6.07,4.66,7.76,7.38S1591.75,1164.57,1591.75,1164.57Z"/><path class="cls-46" d="M1890.46,1300.11l245.68,112.94S1966.59,1352.25,1890.46,1300.11Z"/></g></svg>